<svg xmlns="http://www.w3.org/2000/svg" viewBox="690 650 560 180" width="560" height="180">

<path fill="#FDF6EF" opacity="1.000000" stroke="none" 
	d="
M813.000000,1025.000000 
	C542.000000,1025.000000 271.500000,1025.000000 1.000000,1025.000000 
	C1.000000,683.666687 1.000000,342.333344 1.000000,1.000000 
	C513.000000,1.000000 1025.000000,1.000000 1537.000000,1.000000 
	C1537.000000,342.333344 1537.000000,683.666687 1537.000000,1025.000000 
	C1295.833374,1025.000000 1054.666626,1025.000000 813.000000,1025.000000 
M463.080688,334.300293 
	C460.161652,333.157867 457.332367,331.426880 454.309418,330.965942 
	C429.660828,327.207550 406.342072,330.416290 387.754913,348.357330 
	C372.002625,363.562103 357.639099,380.205688 342.502350,396.382172 
	C349.078583,403.692749 354.891418,410.314301 360.877563,416.775330 
	C372.640411,429.471405 383.841980,442.828064 398.920654,451.894897 
	C417.012482,462.773590 436.446930,464.845123 456.674469,459.637848 
	C466.177399,457.191467 468.928802,453.021118 468.985260,442.993256 
	C469.016235,437.495667 468.884674,431.992065 469.105011,426.502380 
	C469.266113,422.488678 468.123138,419.214355 464.703888,417.072174 
	C461.187347,414.868988 458.185333,416.638214 454.993896,418.420197 
	C442.755188,425.253998 430.220978,425.850067 417.935883,418.748779 
	C401.966248,409.517700 400.801758,387.781891 415.461212,376.793274 
	C426.569458,368.466614 443.707245,368.172119 454.779785,376.352905 
	C457.668365,378.487122 460.369080,380.032990 463.865234,378.218567 
	C467.510742,376.326660 468.892578,373.141998 468.872894,369.155487 
	C468.837494,361.992096 468.724976,354.824158 468.928833,347.666168 
	C469.076233,342.490570 467.576324,338.182281 463.080688,334.300293 
M1295.998657,413.636017 
	C1306.999390,415.698792 1317.894165,415.468384 1328.478760,411.585236 
	C1335.544922,408.992920 1338.233276,404.976135 1338.294189,397.619324 
	C1338.349487,390.957428 1337.947754,384.277405 1338.312622,377.636444 
	C1338.670776,371.118713 1335.450806,367.044800 1330.326050,363.447052 
	C1329.163086,364.532684 1328.077637,365.517242 1327.023560,366.534271 
	C1310.822510,382.166840 1280.578491,373.624451 1274.939941,351.820496 
	C1271.722168,339.378082 1277.305298,325.931885 1288.737671,318.590332 
	C1299.841431,311.459869 1315.366211,312.314575 1325.666870,320.623444 
	C1330.638428,324.633698 1334.405151,323.869171 1336.815796,317.984467 
	C1337.794189,315.596252 1338.193604,312.839874 1338.263062,310.235199 
	C1338.458252,302.911041 1338.335327,295.578674 1338.355835,288.249573 
	C1338.383423,278.402954 1335.144043,274.082336 1325.626343,272.229553 
	C1303.047363,267.834167 1282.014526,272.290741 1266.103638,288.822418 
	C1249.683228,305.883575 1235.622192,325.215454 1220.056152,344.128448 
	C1234.326172,361.145233 1247.480469,377.476685 1261.366821,393.160034 
	C1270.357056,403.313629 1281.921631,409.981506 1295.998657,413.636017 
M825.131470,766.833679 
	C833.142395,764.486572 834.808044,762.424011 834.914551,754.675537 
	C834.981018,749.844421 835.075073,745.013062 835.066895,740.181885 
	C835.061096,736.764465 836.117004,732.408325 831.991272,731.075745 
	C830.031860,730.442810 827.014343,732.407104 824.711365,733.635742 
	C815.547852,738.524841 803.056152,736.498230 797.349060,729.027344 
	C791.436279,721.287170 792.118652,710.210205 798.924133,703.460144 
	C806.174194,696.269104 817.319397,695.924316 826.299438,702.423401 
	C827.614807,703.375366 830.286682,704.442078 830.993408,703.852478 
	C832.729248,702.404297 834.605957,700.097595 834.780640,697.999329 
	C835.290344,691.875732 835.010193,685.685120 835.011169,679.520813 
	C835.012268,672.544556 832.320068,669.179016 825.315735,667.870239 
	C809.993774,665.007202 796.059265,668.247009 785.659973,680.053101 
	C774.711060,692.483093 764.950928,705.960205 754.605591,719.063049 
	C763.087280,729.594177 770.817505,739.399536 778.771606,749.019775 
	C790.611877,763.340210 805.601746,769.927673 825.131470,766.833679 
M410.198456,722.110291 
	C409.382996,720.484070 408.325836,718.932739 407.794403,717.218445 
	C405.630615,710.238770 407.798981,703.197083 413.286987,698.799866 
	C419.277344,694.000183 427.253662,693.497009 434.329468,697.472473 
	C440.471008,700.923035 444.198486,698.769104 444.259247,691.712646 
	C444.290833,688.049011 444.286682,684.384888 444.271423,680.721069 
	C444.238007,672.686890 441.967316,670.175415 434.043945,668.951843 
	C420.682800,666.888428 408.498047,669.702209 399.210968,679.624329 
	C389.498016,690.001343 380.824585,701.351379 371.364471,712.673828 
	C380.409210,723.154602 388.415466,733.429810 397.476654,742.670654 
	C408.011719,753.414673 421.391357,756.579163 436.125153,753.827332 
	C442.134186,752.705017 444.268768,749.996155 444.326569,743.865540 
	C444.365814,739.702332 444.711884,735.509521 444.319427,731.387146 
	C444.088440,728.960388 443.286316,725.871765 441.593781,724.549988 
	C440.450348,723.657043 437.021210,724.827820 435.108154,725.931335 
	C426.263611,731.033020 417.915894,730.048645 410.198456,722.110291 
M1199.952271,274.716278 
	C1199.834717,273.296448 1199.717041,271.876617 1199.587036,270.306030 
	C1188.651001,270.306030 1178.153687,269.929352 1167.695435,270.408539 
	C1156.507202,270.921204 1153.049805,275.035522 1153.051392,286.140350 
	C1153.053101,298.136230 1153.044800,310.132080 1153.041870,322.127960 
	C1153.040527,327.582306 1153.041626,333.036621 1153.041626,338.946503 
	C1155.572266,338.824219 1157.548584,338.923676 1159.455200,338.605713 
	C1174.580322,336.082672 1185.803833,328.069580 1193.071411,314.534607 
	C1199.624634,302.329987 1200.422974,289.116302 1199.952271,274.716278 
M1153.076050,371.500031 
	C1153.059814,379.498993 1153.032593,387.497986 1153.030029,395.496948 
	C1153.026123,407.498199 1158.956055,414.221527 1170.981689,414.952850 
	C1179.785522,415.488251 1188.638794,415.327911 1197.466553,415.211304 
	C1198.588379,415.196503 1200.626221,413.600739 1200.659668,412.680084 
	C1201.248779,396.454865 1200.065552,380.535919 1189.228271,367.246735 
	C1180.069092,356.015320 1168.189697,349.893280 1153.078003,349.113464 
	C1153.078003,356.574738 1153.078003,363.537445 1153.076050,371.500031 
M315.282227,436.169281 
	C311.210663,415.217377 290.148987,399.252441 272.222260,400.655457 
	C272.222260,414.929382 271.876801,429.242004 272.348206,443.527618 
	C272.644165,452.497589 277.640747,459.014648 286.061340,460.352264 
	C296.107971,461.948120 306.422913,461.854950 317.863861,462.571198 
	C317.004456,453.076721 316.275238,445.020294 315.282227,436.169281 
M306.424530,372.902405 
	C315.402985,359.858429 316.840607,345.406036 314.923553,329.931946 
	C305.101837,329.931946 295.790344,329.590271 286.515472,330.026642 
	C276.961823,330.476074 272.196808,335.976410 272.170044,345.643555 
	C272.132263,359.278900 272.181580,372.914551 272.223724,386.549957 
	C272.227539,387.792755 272.449402,389.034882 272.568115,390.257996 
	C287.490662,389.389160 296.915924,384.608765 306.424530,372.902405 
M527.927979,395.500000 
	C527.927795,401.998932 527.927979,408.497833 527.927246,414.996765 
	C527.926147,424.291779 527.924255,424.287384 519.518372,427.369202 
	C519.349060,427.431274 519.349487,427.956665 519.271240,428.263885 
	C525.230957,430.543732 546.676025,430.118225 549.426147,427.366852 
	C547.697632,426.873535 545.927063,426.779816 544.697266,425.916199 
	C543.052368,424.760956 540.681274,423.060730 540.610718,421.504456 
	C540.216187,412.795563 540.420837,404.059479 540.420837,395.332703 
	C541.058838,395.045074 541.696838,394.757477 542.334839,394.469879 
	C551.314819,405.270111 560.292114,416.072601 569.279419,426.866791 
	C570.080872,427.829346 570.917358,429.512360 571.788879,429.546356 
	C577.842529,429.782532 583.909729,429.671021 589.972595,429.671021 
	C590.067505,429.232208 590.162354,428.793365 590.257202,428.354553 
	C574.950195,417.716187 565.553528,401.677399 552.252808,388.572235 
	C564.605103,378.709137 572.782654,365.205719 587.264771,358.635376 
	C579.086914,358.635376 570.909058,358.635376 562.630554,358.635376 
	C562.787109,359.528259 562.736755,359.949158 562.922974,360.144501 
	C563.236145,360.472839 563.670898,360.740540 564.104187,360.890503 
	C570.228271,363.010315 570.752991,364.389862 566.446594,368.870361 
	C561.486572,374.031036 556.306396,378.990601 551.051392,383.853241 
	C548.088562,386.594757 544.782349,388.965210 540.625061,392.312653 
	C540.625061,384.738220 540.613220,378.631012 540.627930,372.523895 
	C540.648926,363.804596 540.661560,363.815308 548.699707,360.529327 
	C549.023254,360.397064 549.113831,359.694855 549.606506,358.614441 
	C539.264465,358.614441 529.288635,358.614441 519.277832,358.614441 
	C519.319336,359.359283 519.214661,359.788208 519.382324,359.984894 
	C519.685547,360.340485 520.130554,360.758575 520.552429,360.802216 
	C526.845398,361.453094 528.188416,365.418884 527.992310,371.006500 
	C527.717834,378.828766 527.927429,386.668030 527.927979,395.500000 
M1029.888306,378.500000 
	C1029.888306,370.470245 1029.888306,362.440521 1029.888306,354.208740 
	C1022.348938,355.592865 1015.861328,356.783905 1009.373718,357.974915 
	C1009.371643,358.461365 1009.369568,358.947815 1009.367493,359.434265 
	C1010.693237,359.702515 1012.249512,359.623627 1013.293274,360.316589 
	C1015.062866,361.491455 1017.718262,363.035675 1017.873718,364.631927 
	C1018.429626,370.337280 1018.091309,376.129761 1018.091309,381.995178 
	C1000.059875,378.077240 989.649963,381.263428 983.420532,392.331329 
	C977.778381,402.355957 979.015137,416.936981 986.115295,424.100739 
	C994.098938,432.155823 1003.707275,432.501801 1017.698425,425.142395 
	C1018.013245,426.858307 1018.319031,428.525269 1018.692810,430.562653 
	C1025.194580,429.547699 1031.343506,428.587830 1037.492310,427.627960 
	C1029.665894,424.016174 1029.726807,424.016602 1029.788330,415.444824 
	C1029.874512,403.463593 1029.858643,391.481628 1029.888306,378.500000 
M340.088043,379.603119 
	C343.824219,375.356445 347.437164,370.993286 351.319183,366.884369 
	C364.225952,353.223175 375.315704,337.452576 395.232941,329.843353 
	C374.391052,329.843353 355.124420,329.845581 335.857788,329.841614 
	C331.668518,329.840729 330.036224,331.852539 330.099304,336.081329 
	C330.265503,347.228485 330.119690,358.380280 330.105896,369.530212 
	C330.097778,376.105133 330.104401,382.680084 330.104401,390.773926 
	C333.971130,386.466400 336.805695,383.308685 340.088043,379.603119 
M1258.944702,278.319519 
	C1263.060913,275.867310 1267.177002,273.415100 1272.487427,270.251434 
	C1253.167725,270.251434 1235.368164,270.263794 1217.568481,270.242432 
	C1213.313599,270.237335 1211.868408,272.270599 1211.911011,276.486694 
	C1212.093018,294.472290 1212.009644,312.460541 1212.043091,330.447784 
	C1212.045288,331.650787 1212.213135,332.853424 1212.376953,335.025787 
	C1217.478638,327.996521 1221.760864,321.654938 1226.492310,315.668549 
	C1236.578735,302.907013 1244.984619,288.672638 1258.944702,278.319519 
M390.521820,461.937439 
	C391.257385,461.896942 391.992920,461.856415 392.728485,461.815887 
	C365.770691,449.427673 350.558502,424.436127 330.097351,404.159515 
	C330.097351,422.241119 330.150055,439.386963 330.058899,456.532013 
	C330.037140,460.625519 331.719208,462.036224 335.785278,462.002441 
	C353.765137,461.853027 371.746948,461.940430 390.521820,461.937439 
M1213.724365,414.776855 
	C1215.360962,414.963593 1216.997437,415.310181 1218.634155,415.311676 
	C1231.453003,415.323242 1244.271973,415.265594 1257.090820,415.235992 
	C1261.532471,415.225739 1265.974121,415.234406 1270.415771,415.234406 
	C1244.432251,401.578644 1230.785400,376.343262 1212.477905,355.026947 
	C1212.254761,356.133606 1212.084961,356.584534 1212.084351,357.035645 
	C1212.062622,374.849579 1212.035522,392.663544 1212.092773,410.477264 
	C1212.096924,411.722443 1212.741821,412.965546 1213.724365,414.776855 
M812.071899,383.665100 
	C811.832947,384.974915 811.570679,386.281006 811.358643,387.595123 
	C808.250549,406.855652 816.691223,422.565796 833.791077,428.304352 
	C845.909973,432.371399 858.080261,431.254517 869.972229,426.834991 
	C870.798218,426.528015 871.925049,425.753174 872.050232,425.043793 
	C872.919739,420.116364 873.561157,415.148651 874.275757,410.193878 
	C873.714966,409.991547 873.154175,409.789246 872.593384,409.586914 
	C871.421814,411.335846 870.031189,412.977386 869.113037,414.850525 
	C860.712280,431.988464 839.354919,427.175934 832.031372,416.999146 
	C822.994934,404.442261 822.968445,381.599304 832.552612,369.464386 
	C838.338684,362.138458 846.287903,359.820160 855.296814,360.916443 
	C863.337952,361.894958 867.223694,367.381592 869.554260,374.513062 
	C869.922485,375.639709 871.106506,376.499756 871.913330,377.483063 
	C872.329102,377.258667 872.744934,377.034302 873.160767,376.809937 
	C873.160767,371.701965 873.160767,366.593994 873.160767,360.452759 
	C867.849670,359.378326 862.091248,357.722809 856.224243,357.114349 
	C834.741455,354.886353 819.279663,364.094971 812.071899,383.665100 
M653.714050,398.532227 
	C653.690552,404.197815 653.640625,409.863434 653.649719,415.528992 
	C653.663513,424.141632 653.679016,424.136902 645.936218,427.342010 
	C645.768250,427.411560 645.790955,427.942017 645.542542,429.124786 
	C654.563538,429.884552 663.360596,429.651917 672.146423,428.669525 
	C665.039551,423.555634 665.038269,423.555634 665.041687,413.924500 
	C665.043518,408.758698 665.047546,403.592896 665.056396,398.427094 
	C665.069885,390.570801 667.619202,387.643799 675.533325,386.387024 
	C682.707825,385.247681 687.548645,389.289978 687.620850,396.583923 
	C687.688477,403.415375 687.381409,410.262268 687.745483,417.075317 
	C688.029175,422.382751 686.883850,426.221008 681.076477,427.336334 
	C680.954285,427.359802 680.938354,427.936798 680.885376,428.258179 
	C684.946594,430.419495 703.496155,430.112671 707.267517,426.909393 
	C696.911926,427.115448 699.053955,420.192871 698.993591,414.534882 
	C698.922485,407.870178 699.041138,401.203217 698.951355,394.538971 
	C698.836426,386.003845 694.018066,380.335297 685.543457,380.343872 
	C680.430237,380.349060 675.287903,382.296112 670.224670,383.622498 
	C668.571106,384.055695 667.125793,385.283661 665.375793,386.265656 
	C665.056458,383.982391 664.810547,382.224274 664.511169,380.083588 
	C658.127747,381.485138 652.063721,382.816559 645.999695,384.147949 
	C646.814148,385.752167 647.477478,386.266052 648.183411,386.333282 
	C652.320312,386.727081 654.044434,388.978760 653.710876,393.050171 
	C653.588928,394.539337 653.703613,396.047913 653.714050,398.532227 
M729.448120,666.270630 
	C725.123169,666.288513 720.788330,666.125977 716.475525,666.363708 
	C708.706177,666.791931 706.103394,669.593201 706.091003,677.250793 
	C706.072754,688.562195 706.103638,699.873840 706.150146,711.185181 
	C706.156555,712.750916 706.371460,714.315918 706.487610,715.851074 
	C729.793396,714.981873 741.178101,692.828491 738.770691,666.266418 
	C736.018433,666.266418 733.218567,666.266418 729.448120,666.270630 
M798.744141,430.214478 
	C801.464966,429.038971 804.185730,427.863464 808.045349,426.195923 
	C798.769104,423.111206 798.760498,423.111267 798.698425,414.023895 
	C798.653015,407.368713 799.069702,400.670502 798.422180,394.075745 
	C798.091003,390.703064 796.666565,386.736267 794.359924,384.392517 
	C787.830200,377.757935 767.545898,378.644562 761.434082,385.723175 
	C759.810486,387.603699 759.158936,391.248535 759.700012,393.725220 
	C760.023315,395.204895 763.529114,396.885681 765.606323,396.888214 
	C769.273438,396.892731 769.992859,393.657806 770.514832,390.487183 
	C770.839294,388.516296 771.628784,385.330505 772.799194,385.036316 
	C776.103210,384.205811 780.133789,383.536102 783.103882,384.729492 
	C787.871521,386.645203 787.129944,391.725250 787.206055,396.081940 
	C787.273682,399.948792 784.086182,400.038452 781.842285,400.864349 
	C776.391235,402.870667 770.651123,404.137115 765.299316,406.357025 
	C757.394165,409.635986 754.406006,415.730194 756.661377,422.573669 
	C758.613953,428.498444 765.159119,432.041565 772.614380,430.245972 
	C777.599060,429.045441 782.268372,426.535736 787.243164,424.546143 
	C788.910645,429.072571 792.712036,431.024841 798.744141,430.214478 
M924.345764,422.731720 
	C924.060303,420.609955 923.559204,418.491364 923.527954,416.365845 
	C923.415222,408.701080 923.551086,401.032410 923.418457,393.368225 
	C923.307556,386.957001 919.911011,382.677124 913.717590,381.082855 
	C906.591736,379.248566 899.416748,379.400177 892.605347,382.167419 
	C889.809998,383.303101 887.035034,385.357819 885.232300,387.737854 
	C884.172852,389.136688 884.245728,392.535156 885.268555,394.046967 
	C886.283997,395.547943 889.343689,396.751221 891.108826,396.347015 
	C892.790710,395.961884 894.174927,393.463318 895.269775,391.641296 
	C895.898132,390.595642 895.434692,388.941071 895.928955,387.754822 
	C896.465332,386.467316 897.451965,384.503571 898.400818,384.407898 
	C901.718994,384.073364 905.564026,383.428894 908.363037,384.726562 
	C913.020020,386.885681 912.781250,392.047913 911.855774,396.218262 
	C911.442810,398.078857 908.625916,399.895508 906.502991,400.794891 
	C900.243286,403.446899 893.611572,405.256866 887.459106,408.114563 
	C882.433960,410.448608 880.421570,415.498505 881.276855,420.645142 
	C882.126221,425.756104 885.711792,429.060669 891.452271,430.176910 
	C899.361145,431.714813 905.581055,427.900146 911.960938,423.491089 
	C913.726990,428.978302 917.535217,430.932373 922.807373,430.390778 
	C927.380432,429.920990 929.677551,428.397339 930.986572,424.999451 
	C928.970215,424.462860 926.951782,423.925720 924.345764,422.731720 
M706.184326,724.888123 
	C706.177551,735.043762 706.121277,745.199646 706.181580,755.354858 
	C706.220703,761.953857 708.946777,766.646790 714.600647,767.168762 
	C722.752625,767.921448 731.025757,767.361206 740.055908,767.361206 
	C739.648438,761.889709 739.689270,756.563354 738.785278,751.402466 
	C736.081238,735.964050 724.923950,724.458313 710.940308,722.463806 
	C709.466309,722.253540 707.792725,723.442078 706.184326,724.888123 
M590.473206,396.127136 
	C587.194336,408.050323 590.050842,418.921387 598.104919,425.170807 
	C606.640320,431.793701 619.530090,432.732208 628.697388,427.398285 
	C638.010681,421.979462 642.653503,411.502136 640.853333,399.966644 
	C639.226318,389.541199 630.923767,381.708679 619.899841,380.199493 
	C606.734985,378.397186 596.275269,383.858795 590.473206,396.127136 
M909.351013,696.155273 
	C909.733276,696.965881 910.190613,697.750610 910.481506,698.592834 
	C911.019592,700.150757 912.363892,702.592407 911.802490,703.189209 
	C905.850159,709.516968 899.588379,715.553650 893.411804,721.670410 
	C892.954346,721.408508 892.496826,721.146545 892.039368,720.884644 
	C892.039368,717.299805 892.015686,713.714783 892.047180,710.130188 
	C892.070618,707.469971 891.443787,704.493042 892.434143,702.241089 
	C893.401245,700.042358 896.052246,698.584290 898.097778,696.676270 
	C890.710938,696.676270 883.457703,696.676270 876.204529,696.676270 
	C882.116882,698.480042 882.862183,702.551636 882.675659,707.745667 
	C882.341309,717.054810 882.574707,726.383240 882.474792,735.702515 
	C882.415894,741.191711 884.333191,747.715271 875.997131,749.533325 
	C883.430603,749.533325 890.864075,749.533325 897.688538,749.533325 
	C895.772644,747.456299 892.599121,745.613892 892.324524,743.410339 
	C891.581360,737.446289 892.069824,731.328796 892.069824,725.272156 
	C898.804199,731.446716 904.532227,738.038330 910.068848,744.786926 
	C914.640686,750.359619 921.276489,752.064331 927.246826,749.625549 
	C918.499878,739.973022 909.475159,730.013916 899.947571,719.499939 
	C908.982910,711.296143 917.292542,703.751221 925.692688,696.124146 
	C920.710938,696.124146 915.457825,696.124146 909.351013,696.155273 
M1229.152222,717.607605 
	C1228.132080,718.698853 1226.925293,719.668518 1226.122559,720.901306 
	C1221.493164,728.012451 1220.743652,735.555908 1224.672241,743.118530 
	C1227.859375,749.253967 1233.510742,751.648132 1240.161499,750.829102 
	C1243.685547,750.395142 1247.063721,748.776306 1250.664429,747.643066 
	C1250.889648,748.490356 1251.233521,749.783203 1251.627075,751.263062 
	C1256.614136,750.532837 1261.236450,749.856079 1266.862427,749.032288 
	C1259.888062,745.636902 1259.867798,745.637024 1259.826294,738.388733 
	C1259.788208,731.735413 1259.795410,725.081787 1259.791260,718.428284 
	C1259.786255,710.146973 1259.790039,701.865662 1259.790039,693.253174 
	C1254.385620,694.332642 1249.558960,695.296692 1244.732300,696.260742 
	C1255.807007,699.644470 1248.930908,708.292908 1251.404175,714.497559 
	C1243.258057,712.485046 1236.105713,712.230652 1229.152222,717.607605 
M722.029175,389.622528 
	C723.842346,387.696075 725.307190,384.879974 727.533386,384.008453 
	C734.450073,381.300415 740.500183,384.681976 743.255371,391.900635 
	C743.702393,393.071808 744.846008,393.977112 745.667603,395.005310 
	C746.115051,393.736237 746.869019,392.486084 746.948792,391.194305 
	C747.138672,388.117981 747.010010,385.022034 747.010010,381.379517 
	C739.673279,380.987274 733.055115,380.067657 726.508606,380.433105 
	C719.077454,380.848053 713.879944,385.645477 712.828125,391.527557 
	C711.637268,398.187073 714.136597,403.004791 721.373840,406.751770 
	C725.936707,409.114136 730.856873,410.775787 735.533264,412.932922 
	C738.810242,414.444458 740.935120,416.910217 740.200073,420.836670 
	C739.444458,424.873047 736.574036,426.578064 732.799683,427.121338 
	C725.238647,428.209686 719.911133,424.913361 716.339844,417.104065 
	C715.689575,415.682037 714.641235,414.442047 713.776672,413.117981 
	C713.395935,413.374237 713.015198,413.630463 712.634460,413.886719 
	C712.634460,419.061554 712.634460,424.236389 712.634460,428.896881 
	C715.925293,429.260803 718.632690,429.842773 721.330688,429.802063 
	C727.721863,429.705688 734.304810,430.181763 740.440979,428.793762 
	C746.413208,427.442810 750.359619,422.767487 750.663574,416.095459 
	C750.954773,409.703125 747.063232,405.885376 741.891785,403.329132 
	C737.432556,401.124969 732.437866,399.921783 728.179993,397.423615 
	C725.631897,395.928528 724.045532,392.794403 722.029175,389.622528 
M333.273651,670.712036 
	C332.335297,672.603760 330.631958,674.476868 330.585297,676.390381 
	C330.322754,687.162903 330.458649,697.945068 330.458649,708.678650 
	C349.061829,710.293579 361.450470,691.998230 357.654694,667.624207 
	C349.787811,668.489746 341.835999,669.364685 333.273651,670.712036 
M330.312866,716.203857 
	C330.310669,725.005310 330.206726,733.808228 330.340210,742.607666 
	C330.437347,749.010681 332.593475,752.995605 337.494873,753.728394 
	C344.242279,754.737061 351.156433,754.630371 358.535278,755.030640 
	C358.535278,751.229553 358.637054,748.592773 358.518585,745.965881 
	C357.808594,730.222290 350.597839,719.777039 337.291260,715.599976 
	C335.182617,714.938049 332.715424,715.418457 330.312866,716.203857 
M768.944824,684.515137 
	C775.109131,678.406799 781.273438,672.298462 787.162842,666.462524 
	C774.740540,666.462524 761.507263,666.462524 747.856079,666.462524 
	C747.856079,681.750122 747.856079,696.805237 747.856079,712.970947 
	C755.148193,703.130432 761.834351,694.107727 768.944824,684.515137 
M974.399719,380.714264 
	C965.311523,377.827881 960.691650,384.713165 955.052063,390.172882 
	C954.874695,386.593872 954.729004,383.654907 954.556641,380.176910 
	C947.891846,381.648041 941.753662,383.002960 935.614746,384.358002 
	C935.816528,385.297180 935.781677,385.723785 935.976440,385.908813 
	C936.302185,386.218384 936.774780,386.565521 937.185181,386.565033 
	C942.336426,386.558716 943.504089,389.439758 943.346008,394.071045 
	C943.078979,401.891083 943.080078,409.736786 943.395813,417.554474 
	C943.609680,422.850891 942.322571,426.396118 936.378296,426.813171 
	C935.858582,426.849670 935.402283,427.788910 934.452820,428.805115 
	C944.500305,428.805115 953.812744,428.805115 963.125183,428.805115 
	C963.185059,428.383209 963.244873,427.961334 963.304749,427.539429 
	C961.860535,427.073578 960.113037,426.965485 959.042908,426.058319 
	C957.420227,424.682800 955.220154,422.822906 955.099609,421.044464 
	C954.604736,413.744873 954.430481,406.376831 954.849915,399.074860 
	C955.291992,391.381012 962.092712,387.767151 968.629700,391.186707 
	C971.688354,392.786743 974.960083,393.269012 977.116577,390.045929 
	C979.384460,386.656433 978.573669,383.410553 974.399719,380.714264 
M1099.113403,709.647217 
	C1090.631104,726.555298 1096.576904,744.601868 1113.077637,749.197998 
	C1119.874878,751.091248 1127.568359,750.753418 1134.730225,750.091187 
	C1142.888916,749.336670 1145.110474,744.722046 1142.583862,735.531006 
	C1141.550903,737.146179 1140.687134,738.260010 1140.070801,739.497253 
	C1134.236328,751.208740 1120.105713,749.266541 1113.685791,743.182739 
	C1104.057251,734.058228 1104.036133,712.614563 1113.692749,703.465454 
	C1121.352051,696.208618 1136.156494,694.927490 1139.991699,709.021484 
	C1140.187744,709.742188 1141.055908,710.280029 1142.546875,711.952820 
	C1142.784302,706.802063 1142.961304,702.962585 1143.132324,699.250732 
	C1126.574707,691.735779 1109.236206,695.712708 1099.113403,709.647217 
M1010.033569,742.022217 
	C1010.002319,736.033447 1010.028381,730.043762 1009.925110,724.056213 
	C1009.801025,716.859375 1006.302612,712.897034 999.185364,713.311523 
	C994.883667,713.562012 990.687805,715.617188 986.441833,716.852783 
	C986.008545,716.978821 985.557861,717.045288 985.040039,717.155396 
	C984.623535,715.829529 984.241577,714.613586 983.764099,713.093506 
	C979.201477,714.124634 974.874084,715.102600 970.546631,716.080566 
	C970.171814,716.600952 969.797058,717.121338 969.422241,717.641724 
	C976.805359,717.409363 975.971008,721.877747 975.932922,725.913696 
	C975.903015,729.074219 976.020508,732.238770 975.900757,735.395081 
	C975.697510,740.751404 978.377136,747.313049 970.265442,749.722046 
	C976.695862,749.722046 983.126343,749.722046 989.556824,749.722046 
	C984.518127,747.695801 984.236023,743.818481 984.470154,739.452637 
	C984.719299,734.806152 984.558105,730.138916 984.647766,725.482117 
	C984.740479,720.664246 987.801697,718.165039 993.638794,718.039185 
	C998.716614,717.929749 1001.298584,720.019653 1001.563171,724.906860 
	C1001.787659,729.053955 1001.661438,733.222595 1001.617981,737.380920 
	C1001.568665,742.103760 1003.152283,747.587097 996.337891,749.547363 
	C1002.772644,749.547363 1009.207397,749.547363 1014.765625,749.547363 
	C1013.166260,747.301086 1011.604126,745.107117 1010.033569,742.022217 
M749.904602,768.040466 
	C762.546021,768.040466 775.187439,768.040466 787.828857,768.040466 
	C769.961731,758.218384 760.295959,741.235413 747.649170,725.563599 
	C747.649170,739.943787 747.636963,753.344910 747.705566,766.745605 
	C747.707764,767.165161 748.544678,767.580383 749.904602,768.040466 
M1083.179321,716.369385 
	C1076.157349,711.800598 1063.211304,711.943481 1058.424561,717.062439 
	C1057.121460,718.455994 1056.464844,721.283936 1056.877808,723.151428 
	C1057.139771,724.335693 1060.261353,725.980469 1061.492554,725.574646 
	C1062.957886,725.091553 1064.453735,722.737732 1064.719727,721.007507 
	C1065.204346,717.852661 1066.560303,716.089966 1069.646484,715.755920 
	C1073.456665,715.343567 1076.298584,716.770813 1077.042114,720.729980 
	C1077.738037,724.435547 1077.956909,727.967102 1072.828857,729.166016 
	C1068.327759,730.218384 1063.800537,731.557190 1059.626221,733.502380 
	C1055.042725,735.638306 1052.918091,740.549011 1054.161743,744.702698 
	C1055.591675,749.477722 1059.546631,751.196167 1063.898071,750.765869 
	C1068.365845,750.324036 1072.717773,748.712585 1077.426392,747.536621 
	C1081.707764,752.344910 1087.086792,752.569946 1092.613892,747.274292 
	C1086.298096,747.627441 1085.945679,743.798401 1086.136108,739.243286 
	C1086.343994,734.265259 1086.378906,729.250427 1085.995972,724.289734 
	C1085.802246,721.781799 1084.520142,719.357971 1083.179321,716.369385 
M1152.157227,748.449951 
	C1159.579834,753.482300 1166.054688,750.128784 1172.435303,746.115417 
	C1176.191528,752.306641 1183.288330,752.787231 1188.047119,746.567566 
	C1181.685059,747.960632 1181.444702,744.220825 1181.573242,739.906433 
	C1181.731934,734.581604 1182.097412,729.190491 1181.449829,723.942017 
	C1181.080078,720.947021 1179.560913,717.377441 1177.348389,715.475037 
	C1172.699097,711.477478 1159.240112,712.206299 1154.647583,716.435303 
	C1153.122559,717.839661 1152.293457,720.704468 1152.380859,722.851257 
	C1152.423218,723.890381 1155.935791,725.984985 1156.790649,725.535522 
	C1158.380615,724.699524 1159.707275,722.484863 1160.183105,720.601440 
	C1161.016968,717.301025 1162.762451,715.631226 1166.064087,715.706177 
	C1169.878052,715.792786 1172.448486,717.672791 1172.956299,721.564026 
	C1173.358887,724.649353 1173.940796,727.823669 1169.365723,728.869385 
	C1164.847412,729.901978 1160.283813,731.181702 1156.099487,733.126526 
	C1149.530518,736.179688 1148.040527,741.890808 1152.157227,748.449951 
M951.943237,750.855530 
	C963.687256,747.424927 969.716858,736.421265 966.004883,725.193970 
	C962.677979,715.131470 950.546448,710.120667 939.430420,714.217834 
	C929.492859,717.880554 924.769653,729.669617 929.109802,739.977905 
	C932.507629,748.047791 939.434021,751.510376 951.943237,750.855530 
M365.685364,699.256836 
	C365.685364,701.517517 365.685364,703.778198 365.685364,706.902283 
	C378.053101,693.937073 385.169312,677.525757 401.974762,668.641479 
	C389.160980,668.641479 377.656372,668.641479 365.681274,668.641479 
	C365.681274,678.759338 365.681274,688.542480 365.685364,699.256836 
M394.838257,750.702454 
	C385.222870,740.556824 375.607483,730.411194 365.951141,720.222351 
	C365.951141,731.525085 365.951141,742.938721 365.951141,754.599487 
	C377.366852,754.599487 388.434357,754.599487 400.413574,754.599487 
	C398.273834,753.117920 396.836670,752.122742 394.838257,750.702454 
M1033.349854,726.409363 
	C1029.892578,725.090759 1026.611206,723.513062 1028.236938,718.897583 
	C1029.347900,715.743042 1034.399170,714.614929 1038.292480,716.789734 
	C1040.087402,717.792480 1041.508789,719.560791 1042.899658,721.156189 
	C1043.804932,722.194580 1044.350220,723.546936 1045.056763,724.758667 
	C1045.326904,724.687988 1045.596924,724.617249 1045.867065,724.546509 
	C1045.867065,721.119446 1045.867065,717.692383 1045.867065,714.159058 
	C1041.980469,713.786438 1038.365601,713.183289 1034.744507,713.144226 
	C1026.305908,713.053345 1021.892395,716.010010 1020.689209,722.161316 
	C1019.597351,727.743896 1023.022644,732.093445 1030.732056,734.980469 
	C1033.218018,735.911438 1035.992310,736.504089 1038.036499,738.045044 
	C1039.622192,739.240295 1041.441650,741.973267 1041.050781,743.474182 
	C1040.564087,745.343262 1038.145142,747.470947 1036.149292,748.037109 
	C1030.970093,749.506287 1027.448486,747.504822 1024.613403,742.571350 
	C1023.736206,741.044800 1022.760132,739.575073 1021.829346,738.079346 
	C1021.536804,738.252136 1021.244263,738.424927 1020.951721,738.597717 
	C1020.951721,742.432434 1020.951721,746.267212 1020.951721,749.889282 
	C1023.573792,750.174255 1025.680054,750.513245 1027.797241,750.608398 
	C1031.276489,750.764954 1034.795532,751.093079 1038.239136,750.754089 
	C1043.895874,750.197327 1048.210327,746.346130 1048.958862,741.805969 
	C1049.763672,736.925049 1047.302490,732.507935 1041.936768,729.799561 
	C1039.432617,728.535583 1036.697266,727.729370 1033.349854,726.409363 
M1210.125366,748.337830 
	C1207.345337,747.590271 1204.564087,746.949219 1204.599854,743.108154 
	C1204.644287,738.290039 1204.292969,733.461060 1204.499023,728.653320 
	C1204.772827,722.260498 1209.158325,719.881104 1215.461182,721.929199 
	C1217.248657,722.509949 1219.753784,722.075256 1221.461182,721.196228 
	C1222.291504,720.768799 1222.729980,717.856201 1222.113647,716.763733 
	C1221.276123,715.279114 1219.385132,713.879700 1217.712036,713.514160 
	C1215.921631,713.122925 1213.611328,713.512451 1211.973633,714.391541 
	C1209.439453,715.751892 1207.283569,717.817139 1204.853149,719.670593 
	C1204.558472,717.785950 1204.256470,715.854675 1203.870972,713.388428 
	C1199.180176,714.348877 1194.715576,715.263062 1190.251099,716.177246 
	C1190.158691,716.587830 1190.066406,716.998352 1189.974121,717.408875 
	C1195.576172,718.034607 1196.222656,721.615540 1195.997925,725.985352 
	C1195.784912,730.129089 1195.978760,734.292969 1195.966064,738.447937 
	C1195.942505,746.107605 1195.934082,746.107605 1189.919800,749.687927 
	C1194.224365,750.133545 1198.554565,750.271484 1202.870361,750.081848 
	C1205.467041,749.967773 1208.041260,749.343384 1210.125366,748.337830 
M592.009766,838.500000 
	C592.009766,854.760010 592.009766,871.020081 592.009766,887.280090 
	C592.510254,887.270508 593.010742,887.260864 593.511230,887.251282 
	C593.511230,802.167542 593.511230,717.083801 593.511230,632.000061 
	C593.010742,631.998657 592.510254,631.997253 592.009766,631.995850 
	C592.009766,700.497192 592.009766,768.998596 592.009766,838.500000 
z"/>
<path fill="#46594A" opacity="1.000000" stroke="none" 
	d="
M463.365540,334.534515 
	C467.576324,338.182281 469.076233,342.490570 468.928833,347.666168 
	C468.724976,354.824158 468.837494,361.992096 468.872894,369.155487 
	C468.892578,373.141998 467.510742,376.326660 463.865234,378.218567 
	C460.369080,380.032990 457.668365,378.487122 454.779785,376.352905 
	C443.707245,368.172119 426.569458,368.466614 415.461212,376.793274 
	C400.801758,387.781891 401.966248,409.517700 417.935883,418.748779 
	C430.220978,425.850067 442.755188,425.253998 454.993896,418.420197 
	C458.185333,416.638214 461.187347,414.868988 464.703888,417.072174 
	C468.123138,419.214355 469.266113,422.488678 469.105011,426.502380 
	C468.884674,431.992065 469.016235,437.495667 468.985260,442.993256 
	C468.928802,453.021118 466.177399,457.191467 456.674469,459.637848 
	C436.446930,464.845123 417.012482,462.773590 398.920654,451.894897 
	C383.841980,442.828064 372.640411,429.471405 360.877563,416.775330 
	C354.891418,410.314301 349.078583,403.692749 342.502350,396.382172 
	C357.639099,380.205688 372.002625,363.562103 387.754913,348.357330 
	C406.342072,330.416290 429.660828,327.207550 454.309418,330.965942 
	C457.332367,331.426880 460.161652,333.157867 463.365540,334.534515 
z"/>
<path fill="#455849" opacity="1.000000" stroke="none" 
	d="
M1295.598877,413.505157 
	C1281.921631,409.981506 1270.357056,403.313629 1261.366821,393.160034 
	C1247.480469,377.476685 1234.326172,361.145233 1220.056152,344.128448 
	C1235.622192,325.215454 1249.683228,305.883575 1266.103638,288.822418 
	C1282.014526,272.290741 1303.047363,267.834167 1325.626343,272.229553 
	C1335.144043,274.082336 1338.383423,278.402954 1338.355835,288.249573 
	C1338.335327,295.578674 1338.458252,302.911041 1338.263062,310.235199 
	C1338.193604,312.839874 1337.794189,315.596252 1336.815796,317.984467 
	C1334.405151,323.869171 1330.638428,324.633698 1325.666870,320.623444 
	C1315.366211,312.314575 1299.841431,311.459869 1288.737671,318.590332 
	C1277.305298,325.931885 1271.722168,339.378082 1274.939941,351.820496 
	C1280.578491,373.624451 1310.822510,382.166840 1327.023560,366.534271 
	C1328.077637,365.517242 1329.163086,364.532684 1330.326050,363.447052 
	C1335.450806,367.044800 1338.670776,371.118713 1338.312622,377.636444 
	C1337.947754,384.277405 1338.349487,390.957428 1338.294189,397.619324 
	C1338.233276,404.976135 1335.544922,408.992920 1328.478760,411.585236 
	C1317.894165,415.468384 1306.999390,415.698792 1295.598877,413.505157 
z"/>
<path fill="#435748" opacity="1.000000" stroke="none" 
	d="
M824.717773,766.899414 
	C805.601746,769.927673 790.611877,763.340210 778.771606,749.019775 
	C770.817505,739.399536 763.087280,729.594177 754.605591,719.063049 
	C764.950928,705.960205 774.711060,692.483093 785.659973,680.053101 
	C796.059265,668.247009 809.993774,665.007202 825.315735,667.870239 
	C832.320068,669.179016 835.012268,672.544556 835.011169,679.520813 
	C835.010193,685.685120 835.290344,691.875732 834.780640,697.999329 
	C834.605957,700.097595 832.729248,702.404297 830.993408,703.852478 
	C830.286682,704.442078 827.614807,703.375366 826.299438,702.423401 
	C817.319397,695.924316 806.174194,696.269104 798.924133,703.460144 
	C792.118652,710.210205 791.436279,721.287170 797.349060,729.027344 
	C803.056152,736.498230 815.547852,738.524841 824.711365,733.635742 
	C827.014343,732.407104 830.031860,730.442810 831.991272,731.075745 
	C836.117004,732.408325 835.061096,736.764465 835.066895,740.181885 
	C835.075073,745.013062 834.981018,749.844421 834.914551,754.675537 
	C834.808044,762.424011 833.142395,764.486572 824.717773,766.899414 
z"/>
<path fill="#425547" opacity="1.000000" stroke="none" 
	d="
M410.444458,722.396484 
	C417.915894,730.048645 426.263611,731.033020 435.108154,725.931335 
	C437.021210,724.827820 440.450348,723.657043 441.593781,724.549988 
	C443.286316,725.871765 444.088440,728.960388 444.319427,731.387146 
	C444.711884,735.509521 444.365814,739.702332 444.326569,743.865540 
	C444.268768,749.996155 442.134186,752.705017 436.125153,753.827332 
	C421.391357,756.579163 408.011719,753.414673 397.476654,742.670654 
	C388.415466,733.429810 380.409210,723.154602 371.364471,712.673828 
	C380.824585,701.351379 389.498016,690.001343 399.210968,679.624329 
	C408.498047,669.702209 420.682800,666.888428 434.043945,668.951843 
	C441.967316,670.175415 444.238007,672.686890 444.271423,680.721069 
	C444.286682,684.384888 444.290833,688.049011 444.259247,691.712646 
	C444.198486,698.769104 440.471008,700.923035 434.329468,697.472473 
	C427.253662,693.497009 419.277344,694.000183 413.286987,698.799866 
	C407.798981,703.197083 405.630615,710.238770 407.794403,717.218445 
	C408.325836,718.932739 409.382996,720.484070 410.444458,722.396484 
z"/>
<path fill="#B64C2E" opacity="1.000000" stroke="none" 
	d="
M1199.955566,275.194977 
	C1200.422974,289.116302 1199.624634,302.329987 1193.071411,314.534607 
	C1185.803833,328.069580 1174.580322,336.082672 1159.455200,338.605713 
	C1157.548584,338.923676 1155.572266,338.824219 1153.041626,338.946503 
	C1153.041626,333.036621 1153.040527,327.582306 1153.041870,322.127960 
	C1153.044800,310.132080 1153.053101,298.136230 1153.051392,286.140350 
	C1153.049805,275.035522 1156.507202,270.921204 1167.695435,270.408539 
	C1178.153687,269.929352 1188.651001,270.306030 1199.587036,270.306030 
	C1199.717041,271.876617 1199.834717,273.296448 1199.955566,275.194977 
z"/>
<path fill="#B64B2E" opacity="1.000000" stroke="none" 
	d="
M1153.077026,371.000061 
	C1153.078003,363.537445 1153.078003,356.574738 1153.078003,349.113464 
	C1168.189697,349.893280 1180.069092,356.015320 1189.228271,367.246735 
	C1200.065552,380.535919 1201.248779,396.454865 1200.659668,412.680084 
	C1200.626221,413.600739 1198.588379,415.196503 1197.466553,415.211304 
	C1188.638794,415.327911 1179.785522,415.488251 1170.981689,414.952850 
	C1158.956055,414.221527 1153.026123,407.498199 1153.030029,395.496948 
	C1153.032593,387.497986 1153.059814,379.498993 1153.077026,371.000061 
z"/>
<path fill="#B64B2E" opacity="1.000000" stroke="none" 
	d="
M315.414124,436.566589 
	C316.275238,445.020294 317.004456,453.076721 317.863861,462.571198 
	C306.422913,461.854950 296.107971,461.948120 286.061340,460.352264 
	C277.640747,459.014648 272.644165,452.497589 272.348206,443.527618 
	C271.876801,429.242004 272.222260,414.929382 272.222260,400.655457 
	C290.148987,399.252441 311.210663,415.217377 315.414124,436.566589 
z"/>
<path fill="#B64A2D" opacity="1.000000" stroke="none" 
	d="
M306.217926,373.194580 
	C296.915924,384.608765 287.490662,389.389160 272.568115,390.257996 
	C272.449402,389.034882 272.227539,387.792755 272.223724,386.549957 
	C272.181580,372.914551 272.132263,359.278900 272.170044,345.643555 
	C272.196808,335.976410 276.961823,330.476074 286.515472,330.026642 
	C295.790344,329.590271 305.101837,329.931946 314.923553,329.931946 
	C316.840607,345.406036 315.402985,359.858429 306.217926,373.194580 
z"/>
<path fill="#B64D31" opacity="1.000000" stroke="none" 
	d="
M527.928955,395.000000 
	C527.927429,386.668030 527.717834,378.828766 527.992310,371.006500 
	C528.188416,365.418884 526.845398,361.453094 520.552429,360.802216 
	C520.130554,360.758575 519.685547,360.340485 519.382324,359.984894 
	C519.214661,359.788208 519.319336,359.359283 519.277832,358.614441 
	C529.288635,358.614441 539.264465,358.614441 549.606506,358.614441 
	C549.113831,359.694855 549.023254,360.397064 548.699707,360.529327 
	C540.661560,363.815308 540.648926,363.804596 540.627930,372.523895 
	C540.613220,378.631012 540.625061,384.738220 540.625061,392.312653 
	C544.782349,388.965210 548.088562,386.594757 551.051392,383.853241 
	C556.306396,378.990601 561.486572,374.031036 566.446594,368.870361 
	C570.752991,364.389862 570.228271,363.010315 564.104187,360.890503 
	C563.670898,360.740540 563.236145,360.472839 562.922974,360.144501 
	C562.736755,359.949158 562.787109,359.528259 562.630554,358.635376 
	C570.909058,358.635376 579.086914,358.635376 587.264771,358.635376 
	C572.782654,365.205719 564.605103,378.709137 552.252808,388.572235 
	C565.553528,401.677399 574.950195,417.716187 590.257202,428.354553 
	C590.162354,428.793365 590.067505,429.232208 589.972595,429.671021 
	C583.909729,429.671021 577.842529,429.782532 571.788879,429.546356 
	C570.917358,429.512360 570.080872,427.829346 569.279419,426.866791 
	C560.292114,416.072601 551.314819,405.270111 542.334839,394.469879 
	C541.696838,394.757477 541.058838,395.045074 540.420837,395.332703 
	C540.420837,404.059479 540.216187,412.795563 540.610718,421.504456 
	C540.681274,423.060730 543.052368,424.760956 544.697266,425.916199 
	C545.927063,426.779816 547.697632,426.873535 549.426147,427.366852 
	C546.676025,430.118225 525.230957,430.543732 519.271240,428.263885 
	C519.349487,427.956665 519.349060,427.431274 519.518372,427.369202 
	C527.924255,424.287384 527.926147,424.291779 527.927246,414.996765 
	C527.927979,408.497833 527.927795,401.998932 527.928955,395.000000 
z"/>
<path fill="#46574A" opacity="1.000000" stroke="none" 
	d="
M1029.887329,379.000000 
	C1029.858643,391.481628 1029.874512,403.463593 1029.788330,415.444824 
	C1029.726807,424.016602 1029.665894,424.016174 1037.492310,427.627960 
	C1031.343506,428.587830 1025.194580,429.547699 1018.692810,430.562653 
	C1018.319031,428.525269 1018.013245,426.858307 1017.698425,425.142395 
	C1003.707275,432.501801 994.098938,432.155823 986.115295,424.100739 
	C979.015137,416.936981 977.778381,402.355957 983.420532,392.331329 
	C989.649963,381.263428 1000.059875,378.077240 1018.091309,381.995178 
	C1018.091309,376.129761 1018.429626,370.337280 1017.873718,364.631927 
	C1017.718262,363.035675 1015.062866,361.491455 1013.293274,360.316589 
	C1012.249512,359.623627 1010.693237,359.702515 1009.367493,359.434265 
	C1009.369568,358.947815 1009.371643,358.461365 1009.373718,357.974915 
	C1015.861328,356.783905 1022.348938,355.592865 1029.888306,354.208740 
	C1029.888306,362.440521 1029.888306,370.470245 1029.887329,379.000000 
M993.046692,409.939087 
	C994.390137,421.664978 1004.760864,425.858215 1013.247314,422.940552 
	C1016.427429,421.847198 1018.465698,420.053101 1018.286133,416.049805 
	C1017.959351,408.763245 1018.432007,401.439453 1018.064270,394.156799 
	C1017.941956,391.734894 1016.805420,388.917511 1015.204529,387.096924 
	C1009.333008,380.419464 998.249817,382.551849 995.052734,391.538208 
	C993.131653,396.937988 993.584961,403.182465 993.046692,409.939087 
z"/>
<path fill="#B64A2D" opacity="1.000000" stroke="none" 
	d="
M339.864166,379.877045 
	C336.805695,383.308685 333.971130,386.466400 330.104401,390.773926 
	C330.104401,382.680084 330.097778,376.105133 330.105896,369.530212 
	C330.119690,358.380280 330.265503,347.228485 330.099304,336.081329 
	C330.036224,331.852539 331.668518,329.840729 335.857788,329.841614 
	C355.124420,329.845581 374.391052,329.843353 395.232941,329.843353 
	C375.315704,337.452576 364.225952,353.223175 351.319183,366.884369 
	C347.437164,370.993286 343.824219,375.356445 339.864166,379.877045 
z"/>
<path fill="#B64C2E" opacity="1.000000" stroke="none" 
	d="
M1258.660889,278.541443 
	C1244.984619,288.672638 1236.578735,302.907013 1226.492310,315.668549 
	C1221.760864,321.654938 1217.478638,327.996521 1212.376953,335.025787 
	C1212.213135,332.853424 1212.045288,331.650787 1212.043091,330.447784 
	C1212.009644,312.460541 1212.093018,294.472290 1211.911011,276.486694 
	C1211.868408,272.270599 1213.313599,270.237335 1217.568481,270.242432 
	C1235.368164,270.263794 1253.167725,270.251434 1272.487427,270.251434 
	C1267.177002,273.415100 1263.060913,275.867310 1258.660889,278.541443 
z"/>
<path fill="#B74B2E" opacity="1.000000" stroke="none" 
	d="
M390.124939,461.939758 
	C371.746948,461.940430 353.765137,461.853027 335.785278,462.002441 
	C331.719208,462.036224 330.037140,460.625519 330.058899,456.532013 
	C330.150055,439.386963 330.097351,422.241119 330.097351,404.159515 
	C350.558502,424.436127 365.770691,449.427673 392.728485,461.815887 
	C391.992920,461.856415 391.257385,461.896942 390.124939,461.939758 
z"/>
<path fill="#B64A2D" opacity="1.000000" stroke="none" 
	d="
M1213.406616,414.493225 
	C1212.741821,412.965546 1212.096924,411.722443 1212.092773,410.477264 
	C1212.035522,392.663544 1212.062622,374.849579 1212.084351,357.035645 
	C1212.084961,356.584534 1212.254761,356.133606 1212.477905,355.026947 
	C1230.785400,376.343262 1244.432251,401.578644 1270.415771,415.234406 
	C1265.974121,415.234406 1261.532471,415.225739 1257.090820,415.235992 
	C1244.271973,415.265594 1231.453003,415.323242 1218.634155,415.311676 
	C1216.997437,415.310181 1215.360962,414.963593 1213.406616,414.493225 
z"/>
<path fill="#465B4D" opacity="1.000000" stroke="none" 
	d="
M812.158447,383.270447 
	C819.279663,364.094971 834.741455,354.886353 856.224243,357.114349 
	C862.091248,357.722809 867.849670,359.378326 873.160767,360.452759 
	C873.160767,366.593994 873.160767,371.701965 873.160767,376.809937 
	C872.744934,377.034302 872.329102,377.258667 871.913330,377.483063 
	C871.106506,376.499756 869.922485,375.639709 869.554260,374.513062 
	C867.223694,367.381592 863.337952,361.894958 855.296814,360.916443 
	C846.287903,359.820160 838.338684,362.138458 832.552612,369.464386 
	C822.968445,381.599304 822.994934,404.442261 832.031372,416.999146 
	C839.354919,427.175934 860.712280,431.988464 869.113037,414.850525 
	C870.031189,412.977386 871.421814,411.335846 872.593384,409.586914 
	C873.154175,409.789246 873.714966,409.991547 874.275757,410.193878 
	C873.561157,415.148651 872.919739,420.116364 872.050232,425.043793 
	C871.925049,425.753174 870.798218,426.528015 869.972229,426.834991 
	C858.080261,431.254517 845.909973,432.371399 833.791077,428.304352 
	C816.691223,422.565796 808.250549,406.855652 811.358643,387.595123 
	C811.570679,386.281006 811.832947,384.974915 812.158447,383.270447 
z"/>
<path fill="#B64D31" opacity="1.000000" stroke="none" 
	d="
M653.712219,398.039917 
	C653.703613,396.047913 653.588928,394.539337 653.710876,393.050171 
	C654.044434,388.978760 652.320312,386.727081 648.183411,386.333282 
	C647.477478,386.266052 646.814148,385.752167 645.999695,384.147949 
	C652.063721,382.816559 658.127747,381.485138 664.511169,380.083588 
	C664.810547,382.224274 665.056458,383.982391 665.375793,386.265656 
	C667.125793,385.283661 668.571106,384.055695 670.224670,383.622498 
	C675.287903,382.296112 680.430237,380.349060 685.543457,380.343872 
	C694.018066,380.335297 698.836426,386.003845 698.951355,394.538971 
	C699.041138,401.203217 698.922485,407.870178 698.993591,414.534882 
	C699.053955,420.192871 696.911926,427.115448 707.267517,426.909393 
	C703.496155,430.112671 684.946594,430.419495 680.879150,428.256897 
	C680.938354,427.936798 680.954285,427.359802 681.076477,427.336334 
	C686.883850,426.221008 688.029175,422.382751 687.745483,417.075317 
	C687.381409,410.262268 687.688477,403.415375 687.620850,396.583923 
	C687.548645,389.289978 682.707825,385.247681 675.533325,386.387024 
	C667.619202,387.643799 665.069885,390.570801 665.056396,398.427094 
	C665.047546,403.592896 665.043518,408.758698 665.041687,413.924500 
	C665.038269,423.555634 665.039551,423.555634 672.146423,428.669525 
	C663.360596,429.651917 654.563538,429.884552 645.542542,429.124786 
	C645.790955,427.942017 645.768250,427.411560 645.936218,427.342010 
	C653.679016,424.136902 653.663513,424.141632 653.649719,415.528992 
	C653.640625,409.863434 653.690552,404.197815 653.712219,398.039917 
z"/>
<path fill="#B54A2E" opacity="1.000000" stroke="none" 
	d="
M729.933350,666.268555 
	C733.218567,666.266418 736.018433,666.266418 738.770691,666.266418 
	C741.178101,692.828491 729.793396,714.981873 706.487610,715.851074 
	C706.371460,714.315918 706.156555,712.750916 706.150146,711.185181 
	C706.103638,699.873840 706.072754,688.562195 706.091003,677.250793 
	C706.103394,669.593201 708.706177,666.791931 716.475525,666.363708 
	C720.788330,666.125977 725.123169,666.288513 729.933350,666.268555 
z"/>
<path fill="#B95236" opacity="1.000000" stroke="none" 
	d="
M798.365356,430.306366 
	C792.712036,431.024841 788.910645,429.072571 787.243164,424.546143 
	C782.268372,426.535736 777.599060,429.045441 772.614380,430.245972 
	C765.159119,432.041565 758.613953,428.498444 756.661377,422.573669 
	C754.406006,415.730194 757.394165,409.635986 765.299316,406.357025 
	C770.651123,404.137115 776.391235,402.870667 781.842285,400.864349 
	C784.086182,400.038452 787.273682,399.948792 787.206055,396.081940 
	C787.129944,391.725250 787.871521,386.645203 783.103882,384.729492 
	C780.133789,383.536102 776.103210,384.205811 772.799194,385.036316 
	C771.628784,385.330505 770.839294,388.516296 770.514832,390.487183 
	C769.992859,393.657806 769.273438,396.892731 765.606323,396.888214 
	C763.529114,396.885681 760.023315,395.204895 759.700012,393.725220 
	C759.158936,391.248535 759.810486,387.603699 761.434082,385.723175 
	C767.545898,378.644562 787.830200,377.757935 794.359924,384.392517 
	C796.666565,386.736267 798.091003,390.703064 798.422180,394.075745 
	C799.069702,400.670502 798.653015,407.368713 798.698425,414.023895 
	C798.760498,423.111267 798.769104,423.111206 808.045349,426.195923 
	C804.185730,427.863464 801.464966,429.038971 798.365356,430.306366 
M781.103333,422.924713 
	C788.088501,418.974457 789.078125,415.402222 786.454163,402.796478 
	C782.414429,404.438477 778.365051,405.883881 774.493286,407.706696 
	C769.119263,410.236816 766.904053,414.751221 768.458679,419.295959 
	C769.835083,423.319458 774.259033,424.770538 781.103333,422.924713 
z"/>
<path fill="#465B4D" opacity="1.000000" stroke="none" 
	d="
M924.639526,423.060120 
	C926.951782,423.925720 928.970215,424.462860 930.986572,424.999451 
	C929.677551,428.397339 927.380432,429.920990 922.807373,430.390778 
	C917.535217,430.932373 913.726990,428.978302 911.960938,423.491089 
	C905.581055,427.900146 899.361145,431.714813 891.452271,430.176910 
	C885.711792,429.060669 882.126221,425.756104 881.276855,420.645142 
	C880.421570,415.498505 882.433960,410.448608 887.459106,408.114563 
	C893.611572,405.256866 900.243286,403.446899 906.502991,400.794891 
	C908.625916,399.895508 911.442810,398.078857 911.855774,396.218262 
	C912.781250,392.047913 913.020020,386.885681 908.363037,384.726562 
	C905.564026,383.428894 901.718994,384.073364 898.400818,384.407898 
	C897.451965,384.503571 896.465332,386.467316 895.928955,387.754822 
	C895.434692,388.941071 895.898132,390.595642 895.269775,391.641296 
	C894.174927,393.463318 892.790710,395.961884 891.108826,396.347015 
	C889.343689,396.751221 886.283997,395.547943 885.268555,394.046967 
	C884.245728,392.535156 884.172852,389.136688 885.232300,387.737854 
	C887.035034,385.357819 889.809998,383.303101 892.605347,382.167419 
	C899.416748,379.400177 906.591736,379.248566 913.717590,381.082855 
	C919.911011,382.677124 923.307556,386.957001 923.418457,393.368225 
	C923.551086,401.032410 923.415222,408.701080 923.527954,416.365845 
	C923.559204,418.491364 924.060303,420.609955 924.639526,423.060120 
M912.209045,406.728516 
	C912.091370,405.497894 911.973694,404.267273 911.786682,402.311279 
	C906.623901,404.626373 901.581543,406.130157 897.514160,409.010651 
	C895.268005,410.601440 893.924561,414.417633 893.586487,417.391113 
	C893.387390,419.141754 895.524841,422.031647 897.353271,422.982758 
	C904.038147,426.459900 912.222351,421.111115 912.242065,413.620392 
	C912.247253,411.633392 912.223816,409.646362 912.209045,406.728516 
z"/>
<path fill="#B64A2D" opacity="1.000000" stroke="none" 
	d="
M706.197998,724.434937 
	C707.792725,723.442078 709.466309,722.253540 710.940308,722.463806 
	C724.923950,724.458313 736.081238,735.964050 738.785278,751.402466 
	C739.689270,756.563354 739.648438,761.889709 740.055908,767.361206 
	C731.025757,767.361206 722.752625,767.921448 714.600647,767.168762 
	C708.946777,766.646790 706.220703,761.953857 706.181580,755.354858 
	C706.121277,745.199646 706.177551,735.043762 706.197998,724.434937 
z"/>
<path fill="#B54E32" opacity="1.000000" stroke="none" 
	d="
M590.625366,395.766541 
	C596.275269,383.858795 606.734985,378.397186 619.899841,380.199493 
	C630.923767,381.708679 639.226318,389.541199 640.853333,399.966644 
	C642.653503,411.502136 638.010681,421.979462 628.697388,427.398285 
	C619.530090,432.732208 606.640320,431.793701 598.104919,425.170807 
	C590.050842,418.921387 587.194336,408.050323 590.625366,395.766541 
M625.653625,390.084930 
	C623.030762,385.226776 619.062134,382.532501 613.456726,383.292267 
	C607.585205,384.088074 604.563721,388.153259 603.251221,393.563568 
	C601.335510,401.461060 601.243713,409.367035 603.808777,417.177277 
	C606.001343,423.853210 609.687988,426.972107 615.400940,427.047424 
	C620.894348,427.119843 624.957092,423.863190 626.981628,417.176849 
	C629.665344,408.313141 629.243225,399.474518 625.653625,390.084930 
z"/>
<path fill="#B84E31" opacity="1.000000" stroke="none" 
	d="
M909.777832,696.139709 
	C915.457825,696.124146 920.710938,696.124146 925.692688,696.124146 
	C917.292542,703.751221 908.982910,711.296143 899.947571,719.499939 
	C909.475159,730.013916 918.499878,739.973022 927.246826,749.625549 
	C921.276489,752.064331 914.640686,750.359619 910.068848,744.786926 
	C904.532227,738.038330 898.804199,731.446716 892.069824,725.272156 
	C892.069824,731.328796 891.581360,737.446289 892.324524,743.410339 
	C892.599121,745.613892 895.772644,747.456299 897.688538,749.533325 
	C890.864075,749.533325 883.430603,749.533325 875.997131,749.533325 
	C884.333191,747.715271 882.415894,741.191711 882.474792,735.702515 
	C882.574707,726.383240 882.341309,717.054810 882.675659,707.745667 
	C882.862183,702.551636 882.116882,698.480042 876.204529,696.676270 
	C883.457703,696.676270 890.710938,696.676270 898.097778,696.676270 
	C896.052246,698.584290 893.401245,700.042358 892.434143,702.241089 
	C891.443787,704.493042 892.070618,707.469971 892.047180,710.130188 
	C892.015686,713.714783 892.039368,717.299805 892.039368,720.884644 
	C892.496826,721.146545 892.954346,721.408508 893.411804,721.670410 
	C899.588379,715.553650 905.850159,709.516968 911.802490,703.189209 
	C912.363892,702.592407 911.019592,700.150757 910.481506,698.592834 
	C910.190613,697.750610 909.733276,696.965881 909.777832,696.139709 
z"/>
<path fill="#495D4F" opacity="1.000000" stroke="none" 
	d="
M1229.432129,717.379517 
	C1236.105713,712.230652 1243.258057,712.485046 1251.404175,714.497559 
	C1248.930908,708.292908 1255.807007,699.644470 1244.732300,696.260742 
	C1249.558960,695.296692 1254.385620,694.332642 1259.790039,693.253174 
	C1259.790039,701.865662 1259.786255,710.146973 1259.791260,718.428284 
	C1259.795410,725.081787 1259.788208,731.735413 1259.826294,738.388733 
	C1259.867798,745.637024 1259.888062,745.636902 1266.862427,749.032288 
	C1261.236450,749.856079 1256.614136,750.532837 1251.627075,751.263062 
	C1251.233521,749.783203 1250.889648,748.490356 1250.664429,747.643066 
	C1247.063721,748.776306 1243.685547,750.395142 1240.161499,750.829102 
	C1233.510742,751.648132 1227.859375,749.253967 1224.672241,743.118530 
	C1220.743652,735.555908 1221.493164,728.012451 1226.122559,720.901306 
	C1226.925293,719.668518 1228.132080,718.698853 1229.432129,717.379517 
M1238.607300,716.753113 
	C1231.396851,721.470764 1229.085205,735.964172 1234.655151,742.501831 
	C1237.939941,746.357239 1242.251831,746.711853 1246.949219,745.485474 
	C1251.647583,744.258850 1251.157715,740.723145 1251.049927,737.186584 
	C1250.938843,733.536865 1251.000977,729.881714 1250.997070,726.228943 
	C1250.988647,718.450867 1247.228760,715.290405 1238.607300,716.753113 
z"/>
<path fill="#B85034" opacity="1.000000" stroke="none" 
	d="
M722.028076,390.009766 
	C724.045532,392.794403 725.631897,395.928528 728.179993,397.423615 
	C732.437866,399.921783 737.432556,401.124969 741.891785,403.329132 
	C747.063232,405.885376 750.954773,409.703125 750.663574,416.095459 
	C750.359619,422.767487 746.413208,427.442810 740.440979,428.793762 
	C734.304810,430.181763 727.721863,429.705688 721.330688,429.802063 
	C718.632690,429.842773 715.925293,429.260803 712.634460,428.896881 
	C712.634460,424.236389 712.634460,419.061554 712.634460,413.886719 
	C713.015198,413.630463 713.395935,413.374237 713.776672,413.117981 
	C714.641235,414.442047 715.689575,415.682037 716.339844,417.104065 
	C719.911133,424.913361 725.238647,428.209686 732.799683,427.121338 
	C736.574036,426.578064 739.444458,424.873047 740.200073,420.836670 
	C740.935120,416.910217 738.810242,414.444458 735.533264,412.932922 
	C730.856873,410.775787 725.936707,409.114136 721.373840,406.751770 
	C714.136597,403.004791 711.637268,398.187073 712.828125,391.527557 
	C713.879944,385.645477 719.077454,380.848053 726.508606,380.433105 
	C733.055115,380.067657 739.673279,380.987274 747.010010,381.379517 
	C747.010010,385.022034 747.138672,388.117981 746.948792,391.194305 
	C746.869019,392.486084 746.115051,393.736237 745.667603,395.005310 
	C744.846008,393.977112 743.702393,393.071808 743.255371,391.900635 
	C740.500183,384.681976 734.450073,381.300415 727.533386,384.008453 
	C725.307190,384.879974 723.842346,387.696075 722.028076,390.009766 
z"/>
<path fill="#B85034" opacity="1.000000" stroke="none" 
	d="
M333.578918,670.475830 
	C341.835999,669.364685 349.787811,668.489746 357.654694,667.624207 
	C361.450470,691.998230 349.061829,710.293579 330.458649,708.678650 
	C330.458649,697.945068 330.322754,687.162903 330.585297,676.390381 
	C330.631958,674.476868 332.335297,672.603760 333.578918,670.475830 
z"/>
<path fill="#B74B2E" opacity="1.000000" stroke="none" 
	d="
M330.363434,715.787231 
	C332.715424,715.418457 335.182617,714.938049 337.291260,715.599976 
	C350.597839,719.777039 357.808594,730.222290 358.518585,745.965881 
	C358.637054,748.592773 358.535278,751.229553 358.535278,755.030640 
	C351.156433,754.630371 344.242279,754.737061 337.494873,753.728394 
	C332.593475,752.995605 330.437347,749.010681 330.340210,742.607666 
	C330.206726,733.808228 330.310669,725.005310 330.363434,715.787231 
z"/>
<path fill="#B54A2E" opacity="1.000000" stroke="none" 
	d="
M768.732666,684.800049 
	C761.834351,694.107727 755.148193,703.130432 747.856079,712.970947 
	C747.856079,696.805237 747.856079,681.750122 747.856079,666.462524 
	C761.507263,666.462524 774.740540,666.462524 787.162842,666.462524 
	C781.273438,672.298462 775.109131,678.406799 768.732666,684.800049 
z"/>
<path fill="#495D4F" opacity="1.000000" stroke="none" 
	d="
M974.759216,380.864044 
	C978.573669,383.410553 979.384460,386.656433 977.116577,390.045929 
	C974.960083,393.269012 971.688354,392.786743 968.629700,391.186707 
	C962.092712,387.767151 955.291992,391.381012 954.849915,399.074860 
	C954.430481,406.376831 954.604736,413.744873 955.099609,421.044464 
	C955.220154,422.822906 957.420227,424.682800 959.042908,426.058319 
	C960.113037,426.965485 961.860535,427.073578 963.304749,427.539429 
	C963.244873,427.961334 963.185059,428.383209 963.125183,428.805115 
	C953.812744,428.805115 944.500305,428.805115 934.452820,428.805115 
	C935.402283,427.788910 935.858582,426.849670 936.378296,426.813171 
	C942.322571,426.396118 943.609680,422.850891 943.395813,417.554474 
	C943.080078,409.736786 943.078979,401.891083 943.346008,394.071045 
	C943.504089,389.439758 942.336426,386.558716 937.185181,386.565033 
	C936.774780,386.565521 936.302185,386.218384 935.976440,385.908813 
	C935.781677,385.723785 935.816528,385.297180 935.614746,384.358002 
	C941.753662,383.002960 947.891846,381.648041 954.556641,380.176910 
	C954.729004,383.654907 954.874695,386.593872 955.052063,390.172882 
	C960.691650,384.713165 965.311523,377.827881 974.759216,380.864044 
z"/>
<path fill="#465B4D" opacity="1.000000" stroke="none" 
	d="
M1099.306396,709.339539 
	C1109.236206,695.712708 1126.574707,691.735779 1143.132324,699.250732 
	C1142.961304,702.962585 1142.784302,706.802063 1142.546875,711.952820 
	C1141.055908,710.280029 1140.187744,709.742188 1139.991699,709.021484 
	C1136.156494,694.927490 1121.352051,696.208618 1113.692749,703.465454 
	C1104.036133,712.614563 1104.057251,734.058228 1113.685791,743.182739 
	C1120.105713,749.266541 1134.236328,751.208740 1140.070801,739.497253 
	C1140.687134,738.260010 1141.550903,737.146179 1142.583862,735.531006 
	C1145.110474,744.722046 1142.888916,749.336670 1134.730225,750.091187 
	C1127.568359,750.753418 1119.874878,751.091248 1113.077637,749.197998 
	C1096.576904,744.601868 1090.631104,726.555298 1099.306396,709.339539 
z"/>
<path fill="#B3472C" opacity="1.000000" stroke="none" 
	d="
M1010.037842,742.467651 
	C1011.604126,745.107117 1013.166260,747.301086 1014.765625,749.547363 
	C1009.207397,749.547363 1002.772644,749.547363 996.337891,749.547363 
	C1003.152283,747.587097 1001.568665,742.103760 1001.617981,737.380920 
	C1001.661438,733.222595 1001.787659,729.053955 1001.563171,724.906860 
	C1001.298584,720.019653 998.716614,717.929749 993.638794,718.039185 
	C987.801697,718.165039 984.740479,720.664246 984.647766,725.482117 
	C984.558105,730.138916 984.719299,734.806152 984.470154,739.452637 
	C984.236023,743.818481 984.518127,747.695801 989.556824,749.722046 
	C983.126343,749.722046 976.695862,749.722046 970.265442,749.722046 
	C978.377136,747.313049 975.697510,740.751404 975.900757,735.395081 
	C976.020508,732.238770 975.903015,729.074219 975.932922,725.913696 
	C975.971008,721.877747 976.805359,717.409363 969.422241,717.641724 
	C969.797058,717.121338 970.171814,716.600952 970.546631,716.080566 
	C974.874084,715.102600 979.201477,714.124634 983.764099,713.093506 
	C984.241577,714.613586 984.623535,715.829529 985.040039,717.155396 
	C985.557861,717.045288 986.008545,716.978821 986.441833,716.852783 
	C990.687805,715.617188 994.883667,713.562012 999.185364,713.311523 
	C1006.302612,712.897034 1009.801025,716.859375 1009.925110,724.056213 
	C1010.028381,730.043762 1010.002319,736.033447 1010.037842,742.467651 
z"/>
<path fill="#B64629" opacity="1.000000" stroke="none" 
	d="
M749.448486,768.019043 
	C748.544678,767.580383 747.707764,767.165161 747.705566,766.745605 
	C747.636963,753.344910 747.649170,739.943787 747.649170,725.563599 
	C760.295959,741.235413 769.961731,758.218384 787.828857,768.040466 
	C775.187439,768.040466 762.546021,768.040466 749.448486,768.019043 
z"/>
<path fill="#B85034" opacity="1.000000" stroke="none" 
	d="
M1083.454590,716.632751 
	C1084.520142,719.357971 1085.802246,721.781799 1085.995972,724.289734 
	C1086.378906,729.250427 1086.343994,734.265259 1086.136108,739.243286 
	C1085.945679,743.798401 1086.298096,747.627441 1092.613892,747.274292 
	C1087.086792,752.569946 1081.707764,752.344910 1077.426392,747.536621 
	C1072.717773,748.712585 1068.365845,750.324036 1063.898071,750.765869 
	C1059.546631,751.196167 1055.591675,749.477722 1054.161743,744.702698 
	C1052.918091,740.549011 1055.042725,735.638306 1059.626221,733.502380 
	C1063.800537,731.557190 1068.327759,730.218384 1072.828857,729.166016 
	C1077.956909,727.967102 1077.738037,724.435547 1077.042114,720.729980 
	C1076.298584,716.770813 1073.456665,715.343567 1069.646484,715.755920 
	C1066.560303,716.089966 1065.204346,717.852661 1064.719727,721.007507 
	C1064.453735,722.737732 1062.957886,725.091553 1061.492554,725.574646 
	C1060.261353,725.980469 1057.139771,724.335693 1056.877808,723.151428 
	C1056.464844,721.283936 1057.121460,718.455994 1058.424561,717.062439 
	C1063.211304,711.943481 1076.157349,711.800598 1083.454590,716.632751 
M1066.958496,734.330750 
	C1063.375977,736.290039 1061.595703,739.652954 1063.675293,742.951660 
	C1064.837524,744.795288 1068.649414,745.872375 1071.182129,745.734131 
	C1074.887573,745.531799 1077.529175,743.145508 1077.306641,738.765442 
	C1077.176880,736.212219 1077.282959,733.646973 1077.282959,730.448303 
	C1073.506348,731.842773 1070.583374,732.922058 1066.958496,734.330750 
z"/>
<path fill="#495D4F" opacity="1.000000" stroke="none" 
	d="
M1151.889771,748.183105 
	C1148.040527,741.890808 1149.530518,736.179688 1156.099487,733.126526 
	C1160.283813,731.181702 1164.847412,729.901978 1169.365723,728.869385 
	C1173.940796,727.823669 1173.358887,724.649353 1172.956299,721.564026 
	C1172.448486,717.672791 1169.878052,715.792786 1166.064087,715.706177 
	C1162.762451,715.631226 1161.016968,717.301025 1160.183105,720.601440 
	C1159.707275,722.484863 1158.380615,724.699524 1156.790649,725.535522 
	C1155.935791,725.984985 1152.423218,723.890381 1152.380859,722.851257 
	C1152.293457,720.704468 1153.122559,717.839661 1154.647583,716.435303 
	C1159.240112,712.206299 1172.699097,711.477478 1177.348389,715.475037 
	C1179.560913,717.377441 1181.080078,720.947021 1181.449829,723.942017 
	C1182.097412,729.190491 1181.731934,734.581604 1181.573242,739.906433 
	C1181.444702,744.220825 1181.685059,747.960632 1188.047119,746.567566 
	C1183.288330,752.787231 1176.191528,752.306641 1172.435303,746.115417 
	C1166.054688,750.128784 1159.579834,753.482300 1151.889771,748.183105 
M1158.623779,739.746826 
	C1158.324951,744.149109 1160.432617,746.224060 1164.790039,746.114685 
	C1169.377075,745.999634 1172.763428,743.194458 1172.907959,739.259338 
	C1173.009033,736.504761 1172.927368,733.743469 1172.927368,730.162415 
	C1167.515259,732.902344 1161.133545,732.428040 1158.623779,739.746826 
z"/>
<path fill="#B85034" opacity="1.000000" stroke="none" 
	d="
M951.507202,750.906006 
	C939.434021,751.510376 932.507629,748.047791 929.109802,739.977905 
	C924.769653,729.669617 929.492859,717.880554 939.430420,714.217834 
	C950.546448,710.120667 962.677979,715.131470 966.004883,725.193970 
	C969.716858,736.421265 963.687256,747.424927 951.507202,750.906006 
M939.978516,719.688904 
	C936.334839,727.382507 936.696045,735.198364 939.740906,742.882812 
	C941.205566,746.579407 944.286194,748.488098 948.501465,748.151245 
	C952.503052,747.831482 955.543579,745.641541 955.935364,741.926758 
	C956.587646,735.741699 957.311096,729.218018 956.033997,723.259216 
	C954.256409,714.964966 946.961792,713.424316 939.978516,719.688904 
z"/>
<path fill="#B84E31" opacity="1.000000" stroke="none" 
	d="
M365.683319,698.791199 
	C365.681274,688.542480 365.681274,678.759338 365.681274,668.641479 
	C377.656372,668.641479 389.160980,668.641479 401.974762,668.641479 
	C385.169312,677.525757 378.053101,693.937073 365.685364,706.902283 
	C365.685364,703.778198 365.685364,701.517517 365.683319,698.791199 
z"/>
<path fill="#B64A2D" opacity="1.000000" stroke="none" 
	d="
M395.118866,750.915039 
	C396.836670,752.122742 398.273834,753.117920 400.413574,754.599487 
	C388.434357,754.599487 377.366852,754.599487 365.951141,754.599487 
	C365.951141,742.938721 365.951141,731.525085 365.951141,720.222351 
	C375.607483,730.411194 385.222870,740.556824 395.118866,750.915039 
z"/>
<path fill="#B85034" opacity="1.000000" stroke="none" 
	d="
M1033.708252,726.562500 
	C1036.697266,727.729370 1039.432617,728.535583 1041.936768,729.799561 
	C1047.302490,732.507935 1049.763672,736.925049 1048.958862,741.805969 
	C1048.210327,746.346130 1043.895874,750.197327 1038.239136,750.754089 
	C1034.795532,751.093079 1031.276489,750.764954 1027.797241,750.608398 
	C1025.680054,750.513245 1023.573792,750.174255 1020.951721,749.889282 
	C1020.951721,746.267212 1020.951721,742.432434 1020.951721,738.597717 
	C1021.244263,738.424927 1021.536804,738.252136 1021.829346,738.079346 
	C1022.760132,739.575073 1023.736206,741.044800 1024.613403,742.571350 
	C1027.448486,747.504822 1030.970093,749.506287 1036.149292,748.037109 
	C1038.145142,747.470947 1040.564087,745.343262 1041.050781,743.474182 
	C1041.441650,741.973267 1039.622192,739.240295 1038.036499,738.045044 
	C1035.992310,736.504089 1033.218018,735.911438 1030.732056,734.980469 
	C1023.022644,732.093445 1019.597351,727.743896 1020.689209,722.161316 
	C1021.892395,716.010010 1026.305908,713.053345 1034.744507,713.144226 
	C1038.365601,713.183289 1041.980469,713.786438 1045.867065,714.159058 
	C1045.867065,717.692383 1045.867065,721.119446 1045.867065,724.546509 
	C1045.596924,724.617249 1045.326904,724.687988 1045.056763,724.758667 
	C1044.350220,723.546936 1043.804932,722.194580 1042.899658,721.156189 
	C1041.508789,719.560791 1040.087402,717.792480 1038.292480,716.789734 
	C1034.399170,714.614929 1029.347900,715.743042 1028.236938,718.897583 
	C1026.611206,723.513062 1029.892578,725.090759 1033.708252,726.562500 
z"/>
<path fill="#46594A" opacity="1.000000" stroke="none" 
	d="
M1210.375488,748.643066 
	C1208.041260,749.343384 1205.467041,749.967773 1202.870361,750.081848 
	C1198.554565,750.271484 1194.224365,750.133545 1189.919800,749.687927 
	C1195.934082,746.107605 1195.942505,746.107605 1195.966064,738.447937 
	C1195.978760,734.292969 1195.784912,730.129089 1195.997925,725.985352 
	C1196.222656,721.615540 1195.576172,718.034607 1189.974121,717.408875 
	C1190.066406,716.998352 1190.158691,716.587830 1190.251099,716.177246 
	C1194.715576,715.263062 1199.180176,714.348877 1203.870972,713.388428 
	C1204.256470,715.854675 1204.558472,717.785950 1204.853149,719.670593 
	C1207.283569,717.817139 1209.439453,715.751892 1211.973633,714.391541 
	C1213.611328,713.512451 1215.921631,713.122925 1217.712036,713.514160 
	C1219.385132,713.879700 1221.276123,715.279114 1222.113647,716.763733 
	C1222.729980,717.856201 1222.291504,720.768799 1221.461182,721.196228 
	C1219.753784,722.075256 1217.248657,722.509949 1215.461182,721.929199 
	C1209.158325,719.881104 1204.772827,722.260498 1204.499023,728.653320 
	C1204.292969,733.461060 1204.644287,738.290039 1204.599854,743.108154 
	C1204.564087,746.949219 1207.345337,747.590271 1210.375488,748.643066 
z"/>
<path fill="#F3E5DC" opacity="1.000000" stroke="none" 
	d="
M592.009766,838.000000 
	C592.009766,768.998596 592.009766,700.497192 592.009766,631.995850 
	C592.510254,631.997253 593.010742,631.998657 593.511230,632.000061 
	C593.511230,717.083801 593.511230,802.167542 593.511230,887.251282 
	C593.010742,887.260864 592.510254,887.270508 592.009766,887.280090 
	C592.009766,871.020081 592.009766,854.760010 592.009766,838.000000 
z"/>
<path fill="#FAF2EB" opacity="1.000000" stroke="none" 
	d="
M993.008911,409.493225 
	C993.584961,403.182465 993.131653,396.937988 995.052734,391.538208 
	C998.249817,382.551849 1009.333008,380.419464 1015.204529,387.096924 
	C1016.805420,388.917511 1017.941956,391.734894 1018.064270,394.156799 
	C1018.432007,401.439453 1017.959351,408.763245 1018.286133,416.049805 
	C1018.465698,420.053101 1016.427429,421.847198 1013.247314,422.940552 
	C1004.760864,425.858215 994.390137,421.664978 993.008911,409.493225 
z"/>
<path fill="#FCF1EA" opacity="1.000000" stroke="none" 
	d="
M780.730713,423.061890 
	C774.259033,424.770538 769.835083,423.319458 768.458679,419.295959 
	C766.904053,414.751221 769.119263,410.236816 774.493286,407.706696 
	C778.365051,405.883881 782.414429,404.438477 786.454163,402.796478 
	C789.078125,415.402222 788.088501,418.974457 780.730713,423.061890 
z"/>
<path fill="#FAF2EB" opacity="1.000000" stroke="none" 
	d="
M912.211304,407.193909 
	C912.223816,409.646362 912.247253,411.633392 912.242065,413.620392 
	C912.222351,421.111115 904.038147,426.459900 897.353271,422.982758 
	C895.524841,422.031647 893.387390,419.141754 893.586487,417.391113 
	C893.924561,414.417633 895.268005,410.601440 897.514160,409.010651 
	C901.581543,406.130157 906.623901,404.626373 911.786682,402.311279 
	C911.973694,404.267273 912.091370,405.497894 912.211304,407.193909 
z"/>
<path fill="#FCF1EA" opacity="1.000000" stroke="none" 
	d="
M625.809631,390.438904 
	C629.243225,399.474518 629.665344,408.313141 626.981628,417.176849 
	C624.957092,423.863190 620.894348,427.119843 615.400940,427.047424 
	C609.687988,426.972107 606.001343,423.853210 603.808777,417.177277 
	C601.243713,409.367035 601.335510,401.461060 603.251221,393.563568 
	C604.563721,388.153259 607.585205,384.088074 613.456726,383.292267 
	C619.062134,382.532501 623.030762,385.226776 625.809631,390.438904 
z"/>
<path fill="#FAF2EB" opacity="1.000000" stroke="none" 
	d="
M1238.959229,716.583496 
	C1247.228760,715.290405 1250.988647,718.450867 1250.997070,726.228943 
	C1251.000977,729.881714 1250.938843,733.536865 1251.049927,737.186584 
	C1251.157715,740.723145 1251.647583,744.258850 1246.949219,745.485474 
	C1242.251831,746.711853 1237.939941,746.357239 1234.655151,742.501831 
	C1229.085205,735.964172 1231.396851,721.470764 1238.959229,716.583496 
z"/>
<path fill="#FCF1EA" opacity="1.000000" stroke="none" 
	d="
M1067.309448,734.166016 
	C1070.583374,732.922058 1073.506348,731.842773 1077.282959,730.448303 
	C1077.282959,733.646973 1077.176880,736.212219 1077.306641,738.765442 
	C1077.529175,743.145508 1074.887573,745.531799 1071.182129,745.734131 
	C1068.649414,745.872375 1064.837524,744.795288 1063.675293,742.951660 
	C1061.595703,739.652954 1063.375977,736.290039 1067.309448,734.166016 
z"/>
<path fill="#FAF2EB" opacity="1.000000" stroke="none" 
	d="
M1158.705200,739.339294 
	C1161.133545,732.428040 1167.515259,732.902344 1172.927368,730.162415 
	C1172.927368,733.743469 1173.009033,736.504761 1172.907959,739.259338 
	C1172.763428,743.194458 1169.377075,745.999634 1164.790039,746.114685 
	C1160.432617,746.224060 1158.324951,744.149109 1158.705200,739.339294 
z"/>
<path fill="#FCF1EA" opacity="1.000000" stroke="none" 
	d="
M940.215820,719.370789 
	C946.961792,713.424316 954.256409,714.964966 956.033997,723.259216 
	C957.311096,729.218018 956.587646,735.741699 955.935364,741.926758 
	C955.543579,745.641541 952.503052,747.831482 948.501465,748.151245 
	C944.286194,748.488098 941.205566,746.579407 939.740906,742.882812 
	C936.696045,735.198364 936.334839,727.382507 940.215820,719.370789 
z"/>

</svg>