<svg xmlns="http://www.w3.org/2000/svg" viewBox="0 0 96 99.8625"><g data-name="Layer 2"><g data-name="Layer 1"><path d="M95,79.89H1a1,1,0,0,1-1-1V72.24a1,1,0,0,1,1-1H95a1,1,0,0,1,1,1v6.65A1,1,0,0,1,95,79.89Zm-93-2H94V73.24H2Z"/><path d="M75.83,73.23H20.16a1,1,0,0,1-.93-.61,1,1,0,0,1,.21-1.09L47.29,43.08a1,1,0,0,1,.71-.3h0a1,1,0,0,1,.71.3L76.55,71.53a1,1,0,0,1,.2,1.09A1,1,0,0,1,75.83,73.23Zm-53.3-2H73.46L48,45.21Z"/><path d="M85.32,73.24a1,1,0,0,1-.92-.61L74.08,48.12,48,32.3,21.91,48.12,11.59,72.63a1,1,0,0,1-1.84-.78l10.44-24.8a1,1,0,0,1,.4-.47L47.48,30.27a1,1,0,0,1,1,0L75.4,46.58a1,1,0,0,1,.4.47l10.44,24.8a1,1,0,0,1-.53,1.31A1.09,1.09,0,0,1,85.32,73.24Z"/><path d="M74.88,48.43a1,1,0,0,1-1-1V14.84H70.61v29.4a1,1,0,0,1-2,0V13.84a1,1,0,0,1,1-1h5.27a1,1,0,0,1,1,1V47.43A1,1,0,0,1,74.88,48.43Z"/><path d="M74.88,14.84H69.61a1,1,0,0,1-1-1.23L71.27,2.49a1,1,0,0,1,2,0l2.63,11.12a1,1,0,0,1-1,1.23Zm-4-2h2.73L72.25,7.06Z"/><path d="M21.11,48.43a1,1,0,0,1-1-1V13.84a1,1,0,0,1,1-1h5.27a1,1,0,0,1,1,1v30.4a1,1,0,0,1-2,0V14.84H22.11V47.43A1,1,0,0,1,21.11,48.43Z"/><path d="M26.38,14.84H21.11a1,1,0,0,1-.78-.38,1,1,0,0,1-.19-.85L22.77,2.49a1,1,0,0,1,1-.77,1,1,0,0,1,1,.77l2.64,11.12a1,1,0,0,1-1,1.23Zm-4-2h2.74L23.74,7.06Z"/><path d="M83.34,68.54a1,1,0,0,1-.72-.3L47.28,31.82a1,1,0,1,1,1.43-1.39L84.06,66.84a1,1,0,0,1-.72,1.7Z"/><path d="M12.65,68.54a1,1,0,0,1-.72-1.7L47.28,30.43a1,1,0,1,1,1.43,1.39L13.37,68.24A1,1,0,0,1,12.65,68.54Z"/><path d="M92.71,73.24H85.32a1,1,0,0,1-.79-.39,1,1,0,0,1-.18-.86l1.11-4.27a1,1,0,0,1,1-.75H91.6a1,1,0,0,1,1,.75L93.68,72a1,1,0,0,1-1,1.25Zm-6.1-2h4.81L90.83,69H87.2Z"/><path d="M91.6,69H86.43a1,1,0,0,1-1-1V12.33a1,1,0,0,1,1-1H91.6a1,1,0,0,1,1,1V68A1,1,0,0,1,91.6,69Zm-4.17-2H90.6V13.33H87.43Z"/><path d="M91.59,13.32H86.42a1,1,0,0,1-1-1.22L88,.78A1,1,0,0,1,89,0a1,1,0,0,1,1,.78L92.57,12.1a1,1,0,0,1-1,1.22Zm-3.92-2h2.67L89,5.49Z"/><path d="M10.68,73.24H3.29a1,1,0,0,1-1-1.25l1.11-4.27a1,1,0,0,1,1-.75H9.57a1,1,0,0,1,1,.75L11.65,72a1,1,0,0,1-.18.86A1,1,0,0,1,10.68,73.24Zm-6.1-2H9.39L8.8,69H5.17Z"/><path d="M9.57,69H4.4a1,1,0,0,1-1-1V12.33a1,1,0,0,1,1-1H9.57a1,1,0,0,1,1,1V68A1,1,0,0,1,9.57,69ZM5.4,67H8.57V13.33H5.4Z"/><path d="M9.58,13.32H4.4a1,1,0,0,1-1-1.22L6,.78A1,1,0,0,1,7,0,1,1,0,0,1,8,.78L10.55,12.1a1,1,0,0,1-1,1.22Zm-3.92-2H8.32L7,5.49Z"/><path d="M71.52,73.23a1,1,0,0,1-1-1V67.82a1,1,0,0,1,2,0v4.41A1,1,0,0,1,71.52,73.23Z"/><path d="M64.36,73.23a1,1,0,0,1-1-1V60.51a1,1,0,0,1,2,0V72.23A1,1,0,0,1,64.36,73.23Z"/><path d="M56.41,73.24a1,1,0,0,1-1-1V52.38a1,1,0,1,1,2,0V72.24A1,1,0,0,1,56.41,73.24Z"/><path d="M48,73.23a1,1,0,0,1-1-1V43.78a1,1,0,0,1,2,0V72.23A1,1,0,0,1,48,73.23Z"/><path d="M39.85,73.24a1,1,0,0,1-1-1V52.1a1,1,0,0,1,2,0V72.24A1,1,0,0,1,39.85,73.24Z"/><path d="M32.32,73.23a1,1,0,0,1-1-1V59.8a1,1,0,0,1,2,0V72.23A1,1,0,0,1,32.32,73.23Z"/><path d="M26.1,73.24a1,1,0,0,1-1-1V66.16a1,1,0,0,1,2,0v6.08A1,1,0,0,1,26.1,73.24Z"/><path d="M43.68,34.87a1,1,0,0,1-1-1V25.16a1,1,0,0,1,1.39-.92L48,25.89l3.93-1.65a1,1,0,0,1,1,.09,1,1,0,0,1,.44.83v8.59a1,1,0,0,1-2,0V26.66l-2.93,1.23a1,1,0,0,1-.78,0l-2.93-1.23v7.21A1,1,0,0,1,43.68,34.87Z"/></g></g></svg>
