<svg xmlns="http://www.w3.org/2000/svg" viewBox="0 0 96 116.075"><g data-name="Layer 2"><g data-name="Layer 1"><path d="M90.51,92.86h-83a1,1,0,0,1-.73-.31,1,1,0,0,1-.27-.75l4.05-59.89a1,1,0,0,1,1-.93H28.3a1,1,0,0,1,1,1V42.1H69.11V32a1,1,0,0,1,1-1H86.18a1,1,0,0,1,1,.93l4.34,59.88a1,1,0,0,1-.27.76A1,1,0,0,1,90.51,92.86Zm-82-2h80.9L85.25,33H71.11V43.1a1,1,0,0,1-1,1H28.3a1,1,0,0,1-1-1V33H12.45Z"/><path d="M79.15,33a1,1,0,0,1-1-1c0-.21-.64-20.86-18.35-27.94a29.36,29.36,0,0,0-21.62,0C20.47,11.14,19.83,31.79,19.83,32a1,1,0,0,1-2,0c0-.22.65-22.18,19.61-29.76a31.45,31.45,0,0,1,23.1,0C79.5,9.78,80.15,31.74,80.15,32a1,1,0,0,1-1,1Z"/><path d="M20.11,25A1,1,0,0,1,20,23a228.52,228.52,0,0,1,58,0,1,1,0,0,1-.25,2,225.44,225.44,0,0,0-57.45,0Z"/><path d="M61.35,36.56H55.86a1,1,0,0,1-1-1V28a1,1,0,0,1,1-1h5.49a1,1,0,0,1,1,1v7.55A1,1,0,0,1,61.35,36.56Zm-4.49-2h3.49V29H56.86Z"/><path d="M51.73,36.56H46.24a1,1,0,0,1-1-1V28a1,1,0,0,1,1-1h5.49a1,1,0,0,1,1,1v7.55A1,1,0,0,1,51.73,36.56Zm-4.49-2h3.49V29H47.24Z"/><path d="M42.11,36.56H36.62a1,1,0,0,1-1-1V28a1,1,0,0,1,1-1h5.49a1,1,0,0,1,1,1v7.55A1,1,0,0,1,42.11,36.56Zm-4.49-2h3.49V29H37.62Z"/><path d="M58.3,92.86h-.07a1,1,0,0,1-.92-1.07c0-.22,1.5-21.2-8.32-29.28-9.82,8.08-8.34,29.06-8.32,29.28a1,1,0,0,1-2,.15C38.6,91,37,68.8,48.4,60.44a1,1,0,0,1,1.18,0C61,68.8,59.37,91,59.3,91.94A1,1,0,0,1,58.3,92.86Z"/><path d="M95,92.86H1a1,1,0,0,1,0-2H95a1,1,0,0,1,0,2Z"/></g></g></svg>
