<svg xmlns="http://www.w3.org/2000/svg" viewBox="0 0 138 172.5"><g><path d="M102.5823,132.1334c-0.0913-0.0522-9.1206-5.3164-9.4053-11.2856c-0.1172-2.4531,1.333-4.7695,4.3105-6.8838c0.436-0.3096,0.5513-0.9072,0.2617-1.3569c-2-3.105-3.6826-4.2612-10.0176-1.1621c-0.6439-0.6006-1.3651-1.0811-2.1252-1.438c-6.2313-19.8076-7.3215-55.6421-7.4576-61.3789c0.9941-0.4272,1.6927-1.4146,1.6927-2.5635c0-1.5322-1.2422-2.7778-2.772-2.7871V32.9918c1.5329-0.0303,2.772-1.2813,2.772-2.8218c0-1.5586-1.2681-2.8271-2.8267-2.8271h-1.9785v-8.6494c0-1.6426-0.8815-3.0728-2.1884-3.8755c-0.0842-2.1772-1.0211-4.2583-2.6168-5.7505V5.0001c0-0.5522-0.4478-1-1-1s-1,0.4478-1,1v3.6455l-0.6177,0.7163c-1.3003,1.5073-2.0161,3.4341-2.0161,5.4253v0.0396c-1.298,0.8047-2.1719,2.231-2.1719,3.8667v8.6494H61.447c-1.5586,0-2.8267,1.2686-2.8267,2.8271c0,1.5405,1.2391,2.7915,2.772,2.8218v10.2856c-1.5298,0.0093-2.772,1.2549-2.772,2.7871c0,1.1582,0.7103,2.1528,1.7177,2.5737c0.4449,32.4902-4.4525,55.1226-6.0928,61.7407c-0.3978,0.1738-0.795,0.3755-1.1894,0.6255c-2.9961-1.6753-6.2334-3.1528-12.4502,0.3013c-0.3018,0.168-0.4951,0.4795-0.5127,0.8242c-0.0171,0.3447,0.145,0.6743,0.4282,0.8716c0.062,0.0435,6.2031,4.3789,5.666,9.4507c-0.3794,3.582-3.9648,6.8203-10.6572,9.6255c-0.439,0.1841-0.6875,0.6528-0.5938,1.1196c0.0942,0.4668,0.5044,0.8027,0.9805,0.8027c15.9972,0,53.7776,0,66.1665,0c0.4526,0,0.8491-0.3047,0.9663-0.7422C103.1662,132.8204,102.9743,132.3595,102.5823,132.1334zM86.3658,112.9112c-0.7884,2.2769-2.8328,10.1733,2.6907,19.0889h-7.0731c-5.6926-7.5669-3.2593-17.7671-2.9521-18.9399C80.9914,110.6139,84.1491,110.8398,86.3658,112.9112zM52.5935,132.0001c4.3926-8.7612,2.0753-17.0625,1.3528-19.1802c2.9775-2.0112,5.1974-0.7876,6.5787,0.6987c0.4417,1.2656,3.158,9.8564-0.6061,18.4814H52.5935zM60.614,84.8448h4.974c-0.3436,5.3413-0.8484,10.5688-1.5815,15.1675h-5.5643C59.1786,95.8526,59.9502,90.7618,60.614,84.8448zM62.3445,48.8536h3.757c0.0818,2.9834,0.2192,9.542,0.1357,17.4326h-4.1718C62.3114,60.8565,62.4242,55.0323,62.3445,48.8536zM81.0523,100.0123h-5.0203c-0.5893-4.6011-1.0296-9.8286-1.3561-15.1675h4.0002C79.3035,89.9918,80.0828,95.1686,81.0523,100.0123zM74.5583,82.8448c-0.2772-4.9648-0.4622-9.959-0.5847-14.5586h3.1231c0.3271,4.5405,0.7634,9.5078,1.3423,14.5586H74.5583zM68.1061,48.8536h3.6364c-0.0141,2.5132-0.0244,9.1958,0.1644,17.4326h-3.6454C68.3409,58.4381,68.1954,51.9161,68.1061,48.8536zM71.9559,68.2862c0.1205,4.5942,0.3054,9.5811,0.5845,14.5586h-4.8056c0.2841-4.9663,0.4332-9.9487,0.5013-14.5586H71.9559zM73.924,66.2862c-0.1939-8.2773-0.1904-14.9897-0.1801-17.4326h2.4077c0.0552,2.4648,0.2457,9.082,0.806,17.4326H73.924zM61.9656,68.2862h4.2455c-0.0699,4.6182-0.2202,9.6035-0.5013,14.5586h-4.8791C61.2945,78.4083,61.6911,73.5431,61.9656,68.2862zM67.6119,84.8448h5.0457c0.3262,5.3076,0.7659,10.5298,1.3575,15.1675h-7.9908C66.7585,95.3658,67.2677,90.1529,67.6119,84.8448zM74.2857,102.0123c0.3973,2.7778,0.8553,5.3003,1.3846,7.4399c-3.3447-1.7287-8.3292-1.6817-11.7422-0.0688c0.6853-2.1392,1.2668-4.6313,1.7589-7.3711H74.2857zM62.4988,113.1031c1.1608-1.9072,4.3375-3.1011,7.9526-2.9224c5.6341,0.2802,6.3419,3.1103,6.4419,3.2065c-0.6385,2.8945-1.9484,11.4224,2.6498,18.6128H62.0874C65.5235,123.3316,63.1834,115.1251,62.4988,113.1031zM78.191,111.0572c-0.7465-2.3477-1.3692-5.4536-1.8871-9.0449h5.1628c0.557,2.583,1.1742,5.043,1.8524,7.3359C81.3166,109.1153,79.5797,109.7582,78.191,111.0572zM75.0696,32.9972v10.2783H63.3923V32.9972H75.0696zM67.6311,14.1339c0.1304-1.248,0.6309-2.4346,1.4429-3.4019c0.9072,0.9316,1.5039,2.1265,1.71,3.4019h-0.3047c-0.0009,0-0.0016,0-0.0024,0h-2.4917c-0.0009,0-0.0016,0-0.0024,0H67.6311zM65.4255,18.6935c0-1.4102,1.1472-2.5581,2.5571-2.5596h2.4966c1.4099,0.0015,2.5571,1.1494,2.5571,2.5596v8.6494h-7.6108V18.6935zM60.6203,30.17c0-0.4561,0.3706-0.8271,0.8267-0.8271h15.5679c0.4561,0,0.8267,0.3711,0.8267,0.8271s-0.3706,0.8271-0.8267,0.8271H61.447C60.9909,30.9972,60.6203,30.6261,60.6203,30.17zM61.4089,45.2755h15.644c0.4351,0,0.7886,0.354,0.7886,0.7891s-0.3535,0.7891-0.7886,0.7891h-15.644c-0.4351,0-0.7886-0.354-0.7886-0.7891S60.9739,45.2755,61.4089,45.2755zM58.0793,102.0123h5.5865c-0.6774,3.7168-1.5262,6.917-2.5817,9.3052c-1.4126-1.1455-3.0042-1.6509-4.6436-1.5088C56.8775,107.9684,57.4554,105.3463,58.0793,102.0123zM42.9294,112.3595c4.1964-1.9663,6.428-1.106,8.9138,0.2612c-0.0367,0.5537,3.8446,9.7322-1.5269,19.3794H40.299C50.3531,126.4029,50.42,118.8185,42.9294,112.3595zM91.4441,132.0001c-6.1392-8.938-3.7549-16.9043-3.1267-18.6108c4.9608-2.4834,6.1065-2.0522,7.2341-0.4751c-7.637,6.0091-4.4846,13.2773,3.2573,19.0859H91.4441z"/></g></svg>
